<?xml version="1.0" encoding="UTF-8" standalone="no"?>
<svg
   xmlns:dc="http://purl.org/dc/elements/1.1/"
   xmlns:cc="http://creativecommons.org/ns#"
   xmlns:rdf="http://www.w3.org/1999/02/22-rdf-syntax-ns#"
   xmlns:svg="http://www.w3.org/2000/svg"
   xmlns="http://www.w3.org/2000/svg"
   xmlns:sodipodi="http://sodipodi.sourceforge.net/DTD/sodipodi-0.dtd"
   xmlns:inkscape="http://www.inkscape.org/namespaces/inkscape"
   version="1.1"
   width="1600"
   height="1200"
   id="svg4"
   sodipodi:docname="circuitFinalFun2.svg"
   inkscape:export-filename="/home/corentin/perso/neurones/circuits/circuitFinalFun.png"
   inkscape:export-xdpi="96"
   inkscape:export-ydpi="96"
   inkscape:version="0.92.3 (2405546, 2018-03-11)">
  <metadata
     id="metadata10">
    <rdf:RDF>
      <cc:Work
         rdf:about="">
        <dc:format>image/svg+xml</dc:format>
        <dc:type
           rdf:resource="http://purl.org/dc/dcmitype/StillImage" />
        <dc:title />
      </cc:Work>
    </rdf:RDF>
  </metadata>
  <defs
     id="defs8">
    <inkscape:path-effect
       effect="bspline"
       id="path-effect837"
       is_visible="true"
       weight="33.333333"
       steps="2"
       helper_size="0"
       apply_no_weight="true"
       apply_with_weight="true"
       only_selected="false" />
    <inkscape:path-effect
       effect="bspline"
       id="path-effect824"
       is_visible="true"
       weight="33.333333"
       steps="2"
       helper_size="0"
       apply_no_weight="true"
       apply_with_weight="true"
       only_selected="false" />
    <inkscape:path-effect
       effect="bspline"
       id="path-effect820"
       is_visible="true"
       weight="33.333333"
       steps="2"
       helper_size="0"
       apply_no_weight="true"
       apply_with_weight="true"
       only_selected="false" />
    <inkscape:path-effect
       effect="bspline"
       id="path-effect819"
       is_visible="true"
       weight="33.333333"
       steps="2"
       helper_size="0"
       apply_no_weight="true"
       apply_with_weight="true"
       only_selected="false" />
    <inkscape:path-effect
       effect="bspline"
       id="path-effect819-8"
       is_visible="true"
       weight="33.333333"
       steps="2"
       helper_size="0"
       apply_no_weight="true"
       apply_with_weight="true"
       only_selected="false" />
    <inkscape:path-effect
       effect="bspline"
       id="path-effect819-84"
       is_visible="true"
       weight="33.333333"
       steps="2"
       helper_size="0"
       apply_no_weight="true"
       apply_with_weight="true"
       only_selected="false" />
  </defs>
  <sodipodi:namedview
     pagecolor="#ffffff"
     bordercolor="#666666"
     borderopacity="1"
     objecttolerance="10"
     gridtolerance="10"
     guidetolerance="10"
     inkscape:pageopacity="0"
     inkscape:pageshadow="2"
     inkscape:window-width="1920"
     inkscape:window-height="1021"
     id="namedview6"
     showgrid="false"
     inkscape:zoom="2.2250293"
     inkscape:cx="1328.2497"
     inkscape:cy="242.86201"
     inkscape:window-x="0"
     inkscape:window-y="0"
     inkscape:window-maximized="1"
     inkscape:current-layer="svg4" />
  <rect
     width="1600"
     height="1200"
     x="0"
     y="0"
     fill="#000"
     stroke="#000"
     id="rect2" />
  <path
     style="fill:none;stroke:#aaaaaa;stroke-width:30;stroke-linecap:butt;stroke-linejoin:miter;stroke-miterlimit:4;stroke-dasharray:none;stroke-opacity:1"
     d="m 196.85241,71.625258 c 32.05943,-2.396866 70.41098,-2.396866 95.57848,5.393019 25.1675,7.789884 37.15267,23.370613 41.9467,47.340013 4.79402,23.96941 2.39707,56.32824 -5.84836,81.90422 -8.24544,25.57597 -22.91444,45.13464 -27.10947,67.00793 -4.19503,21.8733 1.79705,46.44083 15.28075,61.42243 13.48371,14.9816 34.45661,20.37463 56.62829,24.56925 22.17169,4.19461 45.54294,7.19093 62.19906,18.33916 16.65611,11.14824 27.08756,31.39753 21.24108,55.18218 -5.84649,23.78465 -28.3093,52.3185 -56.47429,67.89938 -28.16498,15.58088 -62.3205,18.57698 -82.69513,31.46016 -20.37463,12.88317 -26.966,35.65337 -24.26955,57.22755 2.69646,21.57417 14.68051,41.94706 56.62894,57.2283 41.94843,15.28124 113.85604,25.46816 171.9828,21.27314 58.12676,-4.19501 102.47074,-22.77154 115.95307,-41.9471 13.48234,-19.17557 -3.8957,-38.95058 2.99619,-60.52372 6.89188,-21.57314 38.05251,-44.94361 35.95457,-76.10386 -2.09793,-31.16024 -37.45327,-70.11104 -51.23565,-102.17111 -13.78238,-32.06007 -5.99222,-57.22828 -7.19097,-77.30244 -1.19874,-20.07415 -11.38587,-35.05522 -33.01245,-47.76663 -21.62658,-12.7114 -56.87349,-23.842 -76.04968,-41.82003 -19.1762,-17.97802 -23.37082,-43.14577 -18.27703,-66.21646 5.0938,-23.07069 19.47609,-44.04487 53.33202,-57.527161 33.85593,-13.482293 87.19148,-19.475051 137.82696,-21.871962 50.63547,-2.39691 98.57591,-1.198399 131.23393,11.385358 32.65801,12.583756 50.03641,36.553965 53.03298,58.725525 2.99657,22.17157 -8.38896,42.54568 1.19946,69.8128 9.58843,27.26712 40.14804,61.42198 45.8412,94.97906 5.69315,33.55708 -13.48259,66.51539 -8.68817,87.78938 4.79442,21.27399 33.55689,30.86148 44.34315,52.73329 10.78626,21.87181 3.59577,56.02662 0.59925,84.79195 -2.99653,28.76533 -1.79811,52.13454 11.08568,74.90628 12.88379,22.77174 37.45274,44.94371 62.92108,54.23188 25.4684,9.28818 51.835,5.69273 78.2017,-4.79433 26.3668,-10.48706 52.7335,-27.86511 67.4144,-56.02967 14.6809,-28.16456 17.6771,-67.1154 14.3811,-100.0735 -3.296,-32.9581 -12.8838,-59.92405 -20.9735,-96.47764 -8.0897,-36.5536 -14.6815,-82.69606 -14.1025,-120.07305 0.5789,-37.377 8.4102,-66.29239 20.01,-93.30976 11.5999,-27.01737 26.1528,-50.88421 47.7251,-63.76735 21.5722,-12.88314 49.7379,-14.08168 85.6926,-19.7746 35.9547,-5.69293 79.6994,-15.880048 110.7372,-15.94695 31.0379,-0.0669 49.8592,10.2545 74.7275,43.21261 24.8683,32.95811 56.0283,88.6866 61.7214,233.70588 5.693,145.01929 -14.0815,379.31872 -26.6656,517.74387 -12.5841,138.42515 -17.9773,180.97135 -32.6585,208.53695 -14.6812,27.5656 -38.6504,40.1494 -76.7036,50.0373 -38.0533,9.8879 -90.1849,17.0785 -143.8179,15.2807 -53.633,-1.7977 -108.7621,-12.5838 -152.2079,-34.1568 -43.4457,-21.5731 -75.2051,-53.9318 -86.2909,-80.5987 -11.0857,-26.6669 -1.4978,-47.64037 10.6747,-67.96502 12.1726,-20.32464 26.1794,-39.00031 40.5612,-58.1761 14.3818,-19.1758 28.7636,-38.35156 21.4232,-62.4698 -7.3404,-24.11823 -35.8059,-52.58373 -78.052,-66.06673 -42.24615,-13.48299 -97.97575,-11.68526 -136.62733,9.88729 -38.65157,21.57255 -60.22393,62.91955 -66.21663,98.87486 -5.9927,35.9553 3.59491,66.51583 -0.29987,95.27948 -3.89479,28.76362 -21.27249,55.72902 -54.53132,77.60212 -33.25882,21.8732 -82.39463,38.6513 -135.72854,48.227 -53.33392,9.5758 -112.05732,11.9974 -162.99345,12.9003 -50.93612,0.903 -95.87846,0.2956 -145.01708,-4.798 -49.13862,-5.0936 -103.0693,-14.6813 -141.12187,-34.7563 -38.05257,-20.0751 -60.22422,-50.636 -65.91669,-76.7035 -5.69248,-26.06752 5.09396,-47.6404 20.37439,-64.11901 15.28044,-16.4786 35.05656,-27.86485 58.12646,-31.75964 23.06991,-3.89479 49.43818,-0.29911 86.91546,8.90537 37.47729,9.20449 87.16506,24.3532 131.50903,29.14701 44.34396,4.7938 83.89452,-0.59946 120.80089,-11.27117 36.90637,-10.67172 72.15595,-27.081 89.83302,-46.25663 17.67707,-19.17563 18.27633,-41.34839 9.58768,-62.92018 -8.68866,-21.57179 -26.66678,-42.54626 -59.02525,-51.53491 -32.35847,-8.98864 -79.09961,-5.99241 -133.03219,-3.5954 -53.93258,2.39701 -115.05398,4.19469 -167.82011,-2.60389 C 221.65547,776.52057 176.17803,760.75506 144.71727,734.98708 113.2565,709.21909 95.27944,673.26497 83.294681,613.34087 71.309923,553.41678 65.317426,469.52182 62.920487,388.62439 60.523549,307.72696 61.722049,229.82451 70.605561,179.63127 79.489073,129.43803 96.478957,106.38033 117.75161,92.598319 139.02426,78.816304 164.79298,74.022124 196.85241,71.625258 Z"
     id="path817"
     inkscape:connector-curvature="0"
     inkscape:path-effect="#path-effect819"
     inkscape:original-d="m 190.55929,69.228392 c 38.35255,-0.001 76.7041,-0.001 115.05466,0 11.98555,15.578913 23.97072,31.159638 35.95458,46.740958 -2.39599,32.35842 -4.79294,64.71725 -7.19092,97.07737 -14.3813,18.57615 -28.76266,38.35055 -43.14549,57.52733 5.99378,24.5694 11.98586,49.13693 17.97729,73.7069 20.97511,5.39234 41.94801,10.78537 62.92051,16.17956 23.37071,2.99511 46.74196,5.99143 70.11144,8.98864 10.18776,19.17408 20.37526,39.54904 30.56139,59.32506 -22.17142,27.56472 -44.34298,56.32785 -66.51597,84.49327 -34.15719,2.99533 -68.31271,5.99143 -102.47056,8.98865 -6.59068,22.77023 -13.18205,45.54043 -19.77502,68.3137 11.98641,20.3742 23.97046,40.74709 35.95458,61.12279 71.91172,10.18635 143.81933,20.37327 215.72749,30.5614 44.34499,-18.57753 88.68897,-37.15407 133.03196,-55.7296 -17.37705,-19.77603 -34.75509,-39.55104 -52.13414,-59.32507 31.16164,-23.37148 62.32227,-46.74195 93.48191,-70.11143 -35.35435,-38.9518 -70.70968,-77.9026 -106.06602,-116.85239 7.79116,-25.16921 15.58132,-50.33742 23.37048,-75.50462 -10.18613,-14.98208 -20.37327,-29.96315 -30.5614,-44.94323 -32.95711,-10.78729 -68.3127,-21.57375 -102.47056,-32.35913 -4.19377,-25.16966 -8.3884,-50.33741 -12.5841,-75.50462 14.38237,-20.97383 28.76467,-41.94801 43.1455,-62.920518 53.33071,-5.993102 106.66626,-11.98586 159.99789,-17.977291 47.93945,1.197462 95.87989,2.395972 143.81833,3.595459 17.37869,23.968233 34.75709,47.93844 52.13414,71.90916 -11.3847,20.37342 -22.77023,40.74753 -34.15685,61.12279 30.56418,34.15785 61.12379,68.31271 91.68418,102.47056 -19.17481,32.95743 -38.35055,65.91574 -57.52733,98.8751 28.7657,9.58724 57.52817,19.17473 86.291,28.76367 -7.18996,34.15604 -14.38044,68.31085 -21.57275,102.47056 1.19955,23.37074 2.39797,46.73995 3.59546,70.11143 24.56998,22.171 49.13893,44.34298 73.70693,66.51598 26.3677,-3.59646 52.7343,-7.19191 79.1,-10.78637 26.3677,-17.37905 52.7344,-34.75711 79.1001,-52.13414 2.9972,-38.95177 5.9934,-77.90261 8.9886,-116.8524 -9.5868,-26.96693 -19.1747,-53.93287 -28.7636,-80.89781 -6.5906,-46.14196 -13.1823,-92.28443 -19.775,-138.42514 7.1918,-28.76414 15.5813,-57.52833 23.3705,-86.291 15.5806,-25.16817 29.9631,-49.13893 44.9432,-73.70689 28.1641,-1.19943 56.3298,-2.39797 84.4932,-3.59546 43.7458,-10.18813 87.4905,-20.375255 131.2343,-30.561395 18.3327,10.051887 37.1541,20.373255 55.7296,30.561395 31.1616,55.72863 62.3216,111.45711 93.4818,167.18881 -19.7743,234.30762 -39.5489,468.60705 -59.3249,702.91208 -5.3922,42.54529 -10.7854,85.09149 -16.1796,127.63879 -23.9693,12.5834 -47.9385,25.1672 -71.9092,37.7523 -52.1357,7.1903 -104.2673,14.3808 -156.4024,21.5727 -55.1306,-10.7876 -110.2597,-21.5737 -165.3911,-32.3591 -31.7593,-32.3606 -63.5188,-64.7192 -95.2796,-97.0774 9.5888,-20.9745 19.1767,-41.94797 28.7636,-62.92048 14.7579,-19.67689 28.7647,-38.35254 43.1456,-57.52733 14.3828,-19.17679 28.7646,-38.35255 43.1454,-57.52733 -28.7612,-29.36243 -57.5263,-57.52833 -86.291,-86.291 -55.72858,1.79673 -111.45818,3.59446 -167.18878,5.39319 -21.57215,41.34753 -43.1445,82.69454 -64.71825,124.04331 9.58916,30.56127 19.17678,61.12179 28.76366,91.68418 -17.3774,26.96546 -34.75509,53.93086 -52.13414,80.89776 -49.13905,16.7786 -98.27486,33.5567 -147.41379,50.3365 -57.52773,2.396 -116.25215,4.7929 -174.37972,7.1909 -43.74452,-0.6003 -88.68697,-1.1995 -133.03195,-1.7977 -53.93207,-9.5891 -107.86275,-19.1768 -161.79562,-28.7637 -22.17132,-30.5629 -44.34299,-61.1238 -66.51598,-91.6842 10.78731,-21.57362 21.57375,-43.1465 32.35912,-64.71825 19.77492,-11.38598 39.55104,-22.77223 59.32506,-34.15685 26.36612,3.59424 52.73439,7.18992 79.10009,10.78638 48.53812,14.97959 98.27685,29.96115 147.41378,44.94322 39.55053,-5.39411 79.10108,-10.78737 118.65012,-16.17956 34.15689,-16.1801 69.51319,-32.36012 104.26829,-48.53868 0.60022,-22.17223 1.19949,-44.34499 1.79773,-66.51598 -17.97546,-20.97354 -35.95358,-41.94801 -53.93187,-62.92052 -46.73978,2.9952 -93.48092,5.99143 -140.22287,8.98865 -61.12318,1.79677 -122.24458,3.59445 -183.36837,5.39318 C 221.72018,776.33391 176.17845,760.75386 131.23422,745.17454 113.2577,709.21849 95.280643,673.26437 77.302352,637.31079 71.310988,553.4167 65.318491,469.52174 59.325061,385.62871 c 1.199472,-77.90173 2.397972,-155.80418 3.595458,-233.70478 16.180351,-22.77194 33.55861,-45.54347 50.336411,-68.313705 25.76718,-4.794707 51.5359,-9.588888 77.30236,-14.381833 z"
     sodipodi:nodetypes="ccccccccccccccccccccccccccccccccccccccccccccccccccccccccccccccccccccccccccccccc" />
  <path
     style="fill:none;stroke:#aaaaaa;stroke-width:30;stroke-linecap:butt;stroke-linejoin:miter;stroke-miterlimit:4;stroke-dasharray:none;stroke-opacity:1"
     d="m 195.43816,92.039675 c 31.46065,4.793715 60.93128,-1.817997 79.56102,1.168189 18.62974,2.986185 26.41983,15.570176 30.61464,37.742016 4.19482,22.17184 4.79405,53.93143 -2.39643,79.69881 -7.19049,25.76738 -22.17068,45.54124 -24.56831,72.509 -2.39763,26.96775 7.78861,61.12161 26.36633,76.403 18.57772,15.28139 45.54288,11.68604 65.61714,13.48393 20.07425,1.7979 33.2576,8.98882 44.64297,19.77498 11.38536,10.78616 20.97325,25.168 14.98142,42.24606 -5.99183,17.07806 -27.56374,36.85231 -56.02882,51.83428 -28.46508,14.98197 -63.81904,25.1687 -83.29496,43.14561 -19.47591,17.9769 -23.0712,43.74316 -16.17971,67.11523 6.89149,23.37206 24.26836,44.34414 69.51268,58.12712 45.24432,13.78298 118.35039,20.37451 182.76917,15.87999 64.41877,-4.49453 120.14837,-20.07485 133.63081,-39.25041 13.48244,-19.17556 -15.28122,-41.9468 -10.18714,-65.61732 5.09409,-23.67052 44.04486,-48.23946 41.94695,-79.39973 -2.0979,-31.16027 -45.24336,-68.91254 -58.42639,-101.5719 -13.18303,-32.65937 3.59578,-60.22454 4.4942,-85.69191 0.89843,-25.46737 -14.08265,-48.83785 -46.7408,-59.62411 -32.65815,-10.78627 -82.99366,-8.98858 -106.96429,-25.16895 -23.97063,-16.18036 -21.5737,-50.33659 -11.08657,-79.99916 10.48714,-29.66256 29.06367,-54.830769 65.61753,-64.717671 36.55385,-9.886902 91.08496,-4.49372 142.31978,-1.197928 51.23482,3.295792 99.17532,4.494306 131.83332,17.07807 32.65799,12.583764 50.03638,36.553979 46.14177,60.523389 -3.89461,23.96941 -29.06112,47.93753 -13.18055,74.00672 15.88058,26.06919 72.80526,54.23192 85.38964,85.99122 12.58437,31.7593 -19.17549,67.1146 -20.67326,89.58701 -1.49777,22.47241 27.26473,32.05991 38.05098,53.93171 10.78626,21.8718 3.59579,56.02662 -3.89514,88.98676 -7.49092,32.96015 -15.28068,64.71831 -2.39684,87.49024 12.88384,22.77193 46.44147,36.55452 76.4039,41.6479 29.9625,5.09339 56.3291,1.49794 89.2875,-6.29232 32.9584,-7.79026 72.5085,-19.77514 87.1892,-47.93973 14.6808,-28.1646 4.4937,-72.50862 -5.3938,-108.16348 -9.8876,-35.65486 -19.4754,-62.62081 -32.359,-100.37275 -12.8836,-37.75194 -29.0634,-86.2914 -32.0593,-126.14137 -2.9959,-39.84998 6.9001,-70.12011 22.3095,-101.24666 15.4094,-31.12655 34.6193,-59.65034 63.9823,-74.63085 29.363,-14.980514 68.3137,-15.579755 115.3544,-20.673424 47.0407,-5.093668 102.1709,-14.681529 134.8291,-4.494578 32.6581,10.186951 42.8452,40.149032 52.4332,86.590282 9.5879,46.44125 18.5763,109.36049 -19.4691,215.38355 -38.0454,106.02305 -123.1225,255.14185 -127.0179,365.70284 -3.8954,110.56099 73.3914,182.55814 100.9506,243.1274 27.5592,60.56927 5.3889,109.70357 -38.0582,133.07587 -43.447,23.3722 -108.1606,20.9754 -166.8878,17.6795 -58.7272,-3.2959 -111.4587,-7.4905 -157.6014,-26.0673 -46.1428,-18.5767 -85.6922,-51.5346 -97.9764,-79.9993 -12.28419,-28.4647 2.3062,-51.80927 18.6004,-70.56266 16.2943,-18.7534 32.6356,-31.00934 54.508,-46.58965 21.8724,-15.58032 48.5587,-33.96425 43.4118,-63.02568 -5.147,-29.06144 -41.9149,-67.60845 -95.8463,-83.48845 -53.9313,-15.88 -124.6406,-8.68922 -168.08687,18.27668 -43.44628,26.9659 -59.62509,73.70463 -54.23199,113.25636 5.3931,39.55173 32.35772,71.90925 31.75896,104.8678 -0.59876,32.9585 -28.76138,66.514 -65.91593,90.7847 -37.15454,24.2708 -83.29427,39.2512 -136.02769,47.6408 -52.73342,8.3896 -112.05855,10.1873 -165.39116,12.8839 -53.3326,2.6966 -100.67176,6.292 -156.10315,-10e-5 -55.43139,-6.292 -118.94876,-22.471 -160.89687,-51.2354 -41.94811,-28.7644 -62.322047,-70.1115 -64.119292,-103.0703 -1.797245,-32.95874 14.981562,-57.52771 36.254892,-75.50469 21.27333,-17.97699 47.04078,-29.3626 72.808,-32.05884 25.76722,-2.69625 51.53466,3.29618 88.6875,21.5731 37.15285,18.27692 85.69151,48.8383 133.33177,60.52337 47.64026,11.68507 94.38121,4.49415 134.5305,-11.08648 40.1493,-15.58064 73.70689,-39.55034 91.08442,-63.5202 17.37752,-23.96986 18.576,-47.93957 10.78451,-71.62836 -7.79148,-23.68879 -24.57274,-47.09751 -60.22714,-59.08227 -35.6544,-11.98477 -90.18183,-12.54575 -148.3084,-3.53796 -58.12657,9.00779 -119.8472,27.5839 -173.47985,25.1872 C 222.31955,791.91568 176.77707,768.5452 139.92322,740.38043 103.06937,712.21565 74.905309,679.25771 58.426137,620.53146 41.946966,561.80522 37.153022,477.31195 38.651207,393.41785 40.149393,309.52375 47.939552,226.22898 58.72616,169.90007 69.512768,113.57116 83.295355,84.208253 106.91151,77.627305 c 23.61615,-6.580947 57.06601,9.618655 88.52665,14.41237 z"
     id="path817-8"
     inkscape:connector-curvature="0"
     inkscape:path-effect="#path-effect819-84"
     inkscape:original-d="m 197.42698,103.44537 c 29.47166,-6.61272 58.94229,-13.224432 88.41195,-19.835149 7.79116,12.583104 15.58125,25.167089 23.37048,37.752309 0.60024,31.75917 1.19948,63.51876 1.79772,95.27964 -14.98007,19.77402 -29.96027,39.54788 -44.94322,59.32506 10.18873,34.15785 20.37497,68.31172 30.5614,102.47056 26.96771,-3.59656 53.93287,-7.19191 80.8978,-10.78637 13.18434,7.18991 26.36769,14.38083 39.55004,21.57274 9.58889,14.38083 19.17678,28.76267 28.76366,43.1455 -21.57174,19.77402 -43.14365,39.54827 -64.71824,59.32506 -35.35572,10.18653 -70.70968,20.37327 -106.06602,30.5614 -3.59445,25.76645 -7.18975,51.53271 -10.78637,77.30235 17.37985,20.97347 34.75672,41.94555 52.13414,62.92051 73.11023,6.59082 146.2163,13.18236 219.32295,19.77503 55.73061,-15.58132 111.46021,-31.16164 167.18881,-46.74095 -28.76266,-22.77224 -57.52632,-45.54348 -86.29099,-68.31372 38.9518,-24.56996 77.90257,-49.1389 116.85242,-73.70689 -43.14456,-37.75335 -86.29002,-75.50562 -129.43653,-113.25693 16.77981,-27.56618 33.55861,-55.13136 50.33642,-82.69554 -14.98008,-23.37148 -29.96116,-46.74195 -44.94324,-70.11143 -50.33541,1.79672 -100.67092,3.59442 -151.00924,5.39318 2.39801,-34.15847 4.79494,-68.3147 7.19092,-102.47056 18.57753,-25.16921 37.15407,-50.337413 55.7296,-75.504615 54.53212,5.392183 109.06323,10.785366 163.59339,16.179553 47.9394,1.19747 95.8799,2.395974 143.8183,3.59546 17.37869,23.968247 34.7571,47.938442 52.1341,71.909162 -25.16739,23.96891 -50.3339,47.93704 -75.50457,71.90916 56.93243,28.16508 113.85711,56.32781 170.78428,84.49327 -31.75895,35.35439 -63.51881,70.70969 -95.27971,106.06602 28.7657,9.58724 57.5282,19.17473 86.291,28.76367 -7.1899,34.15604 -14.3804,68.31085 -21.5727,102.47056 -7.7896,31.76059 -15.57936,63.51875 -23.37054,95.27964 33.55865,13.78159 67.11628,27.56418 100.67291,41.34777 26.3677,-3.59646 52.7343,-7.19191 79.1,-10.78637 39.551,-11.98586 79.1011,-23.97072 118.6501,-35.95458 -10.1861,-44.34497 -20.3733,-88.68898 -30.5614,-133.03196 -9.5868,-26.96693 -19.1747,-53.93287 -28.7636,-80.89781 -16.1783,-48.5389 -32.3581,-97.07837 -48.5387,-145.61606 10.1882,-31.16164 20.0842,-61.43178 30.5615,-93.48191 20.3411,-30.20303 39.551,-58.7268 59.325,-88.088726 38.9518,-0.600243 77.9025,-1.199483 116.8523,-1.797726 55.1315,-9.588899 110.2617,-19.176768 165.3911,-28.763668 10.1882,29.961184 20.3753,59.92328 30.5615,89.88645 8.9896,62.91957 17.978,125.83881 26.9658,188.76156 -85.0794,149.12371 -170.1564,298.24252 -255.2362,447.36535 77.2896,71.99793 154.5763,143.99509 231.8658,215.99673 -22.1715,49.1381 -44.3419,98.2724 -66.516,147.4138 -64.7204,-2.3981 -129.434,-4.795 -194.1547,-7.191 -52.7336,-4.1958 -105.4651,-8.3903 -158.2002,-12.5841 -39.5496,-32.9598 -79.099,-65.9177 -118.65007,-98.8751 14.98206,-23.9707 29.57237,-47.31532 44.94317,-71.90914 17.2174,-12.91329 33.5587,-25.16919 50.3365,-37.75231 26.967,-18.57756 53.6533,-36.96151 80.8977,-55.7296 -37.5372,-39.35554 -74.3051,-77.90257 -111.4592,-116.8524 -70.70969,7.18993 -141.41899,14.3807 -212.13198,21.57276 -16.17888,46.74083 -32.35769,93.47956 -48.53874,140.22287 26.96773,32.35906 53.93234,64.71658 80.89785,97.07732 -28.16399,33.5573 -56.32657,67.1128 -84.49323,100.6728 -46.14276,14.9808 -92.28247,29.9613 -138.42515,44.9433 -59.32402,1.7968 -118.64915,3.5945 -177.97521,5.3932 -47.33919,3.5945 -94.67835,7.1899 -142.0206,10.7864 -63.52017,-16.1809 -127.03752,-32.3599 -190.55928,-48.5387 -20.37358,-41.3494 -40.747525,-82.6965 -61.122786,-124.04332 16.779804,-24.56997 33.558606,-49.13894 50.336416,-73.70691 25.76844,-11.38661 51.53588,-22.77223 77.30234,-34.15685 25.76846,5.99144 51.5359,11.98387 77.30236,17.9773 48.53969,30.5604 97.07836,61.12178 145.61605,91.68418 46.74196,-7.19192 93.48291,-14.38283 140.22287,-21.57275 33.55862,-23.97072 67.11622,-47.94042 100.67287,-71.90916 1.19948,-23.97074 2.39795,-47.94045 3.59543,-71.90917 -16.78026,-23.40972 -33.56152,-46.81844 -50.34378,-70.22617 -54.52766,-0.56199 -109.05509,-1.12298 -163.58599,-1.68299 -61.72244,18.57596 -123.44307,37.15207 -185.1661,55.7296 C 222.32017,791.91448 176.77769,768.544 131.23423,745.17453 103.07044,712.21474 74.906383,679.25679 46.740963,646.29943 41.948019,561.80516 37.154075,477.31189 32.359131,392.81962 40.150292,309.52383 47.940451,226.22906 55.729612,142.93527 69.513202,113.57136 83.29579,84.208457 97.077378,54.846552 130.52824,71.045156 163.9781,87.244757 197.42698,103.44537 Z"
     sodipodi:nodetypes="ccccccccccccccccccccccccccccccccccccccccccccccccccccccccccccccccccccccccccccccc" />
  <path
     style="fill:#aaaaaa;fill-opacity:1;stroke:#aaaaaa;stroke-width:1px;stroke-linecap:butt;stroke-linejoin:miter;stroke-opacity:1"
     d="m 1497.396,1025.5445 c -10.2248,18.427 -22.3595,-16.479 -29.8874,-38.16403 -7.528,-21.68507 -10.4494,-30.14941 -25.73,-56.32865 -15.2807,-26.17923 -42.9208,-70.0738 -53.7446,-88.38809 -10.8237,-18.31428 -4.8313,-11.0485 9.8876,6.32963 14.719,17.37813 38.1641,44.86813 58.3517,48.3882 20.1876,3.52008 36.2643,-15.89994 45.9802,-34.0345 9.716,-18.13456 11.2098,-31.5081 13.5318,-30.90868 2.3219,0.59941 5.3929,15.87977 2.7714,59.40037 -2.6216,43.5206 -10.936,115.27875 -21.1607,133.70575 z"
     id="path835"
     inkscape:connector-curvature="0"
     inkscape:path-effect="#path-effect837"
     inkscape:original-d="m 1499.3061,1078.878 c -12.1337,-34.9069 -24.2683,-69.8129 -36.404,-104.71772 -2.9203,-8.4653 -5.8417,-16.92963 -8.764,-25.39292 -27.639,-43.89553 -55.2791,-87.79009 -82.9202,-131.68366 5.9935,7.26482 11.9859,14.53061 17.9773,21.79746 23.4465,27.4894 46.8916,54.97942 70.3361,82.47083 16.9297,-20.45027 33.0064,-39.87027 50.7859,-61.34751 1.6532,-14.79188 3.147,-28.16542 4.719,-42.24663 3.0722,15.2797 6.1432,30.56007 9.2134,45.84209 -8.3136,71.75952 -16.628,143.51766 -24.9435,215.27806 z"
     sodipodi:nodetypes="cccccccccc" />
</svg>
