<?xml version="1.0" encoding="UTF-8" standalone="no"?>
<svg
   xmlns:dc="http://purl.org/dc/elements/1.1/"
   xmlns:cc="http://creativecommons.org/ns#"
   xmlns:rdf="http://www.w3.org/1999/02/22-rdf-syntax-ns#"
   xmlns:svg="http://www.w3.org/2000/svg"
   xmlns="http://www.w3.org/2000/svg"
   xmlns:sodipodi="http://sodipodi.sourceforge.net/DTD/sodipodi-0.dtd"
   xmlns:inkscape="http://www.inkscape.org/namespaces/inkscape"
   version="1.1"
   width="800"
   height="600"
   id="svg4"
   sodipodi:docname="circuit6.svg"
   inkscape:export-filename="/home/corentin/perso/neurones/circuits/circuit6.png"
   inkscape:export-xdpi="95"
   inkscape:export-ydpi="95"
   inkscape:version="0.92.3 (2405546, 2018-03-11)">
  <metadata
     id="metadata10">
    <rdf:RDF>
      <cc:Work
         rdf:about="">
        <dc:format>image/svg+xml</dc:format>
        <dc:type
           rdf:resource="http://purl.org/dc/dcmitype/StillImage" />
        <dc:title />
      </cc:Work>
    </rdf:RDF>
  </metadata>
  <defs
     id="defs8">
    <inkscape:path-effect
       effect="skeletal"
       id="path-effect938"
       is_visible="true"
       pattern="m 139.42275,-840.61918 c -2.24761,8.99366 1.94708,18.62287 9.28855,23.801 7.34148,5.17813 17.82778,5.90483 26.66616,1.63518 8.83838,-4.26965 16.02987,-13.53628 15.68876,-22.76573 -0.34111,-9.22945 -8.648,-18.93053 -15.23919,-23.65439 -6.59119,-4.72386 -11.68488,-4.72386 -18.57712,-0.5447 -6.89224,4.17915 -15.57954,12.53497 -17.82716,21.52864 z"
       copytype="single_stretched"
       prop_scale="1"
       scale_y_rel="false"
       spacing="0"
       normal_offset="0"
       tang_offset="0"
       prop_units="false"
       vertical_pattern="false"
       fuse_tolerance="0" />
    <inkscape:path-effect
       effect="bspline"
       id="path-effect926"
       is_visible="true"
       weight="33.333333"
       steps="2"
       helper_size="0"
       apply_no_weight="true"
       apply_with_weight="true"
       only_selected="false" />
    <inkscape:path-effect
       effect="bspline"
       id="path-effect819"
       is_visible="true"
       weight="33.333333"
       steps="2"
       helper_size="0"
       apply_no_weight="true"
       apply_with_weight="true"
       only_selected="false" />
    <inkscape:path-effect
       effect="bspline"
       id="path-effect819-8"
       is_visible="true"
       weight="33.333333"
       steps="2"
       helper_size="0"
       apply_no_weight="true"
       apply_with_weight="true"
       only_selected="false" />
    <inkscape:path-effect
       effect="bspline"
       id="path-effect819-0"
       is_visible="true"
       weight="33.333333"
       steps="2"
       helper_size="0"
       apply_no_weight="true"
       apply_with_weight="true"
       only_selected="false" />
    <inkscape:path-effect
       effect="bspline"
       id="path-effect819-9"
       is_visible="true"
       weight="33.333333"
       steps="2"
       helper_size="0"
       apply_no_weight="true"
       apply_with_weight="true"
       only_selected="false" />
  </defs>
  <sodipodi:namedview
     pagecolor="#ffffff"
     bordercolor="#666666"
     borderopacity="1"
     objecttolerance="10"
     gridtolerance="10"
     guidetolerance="10"
     inkscape:pageopacity="0"
     inkscape:pageshadow="2"
     inkscape:window-width="1920"
     inkscape:window-height="1021"
     id="namedview6"
     showgrid="false"
     inkscape:zoom="1.1125147"
     inkscape:cx="309.42856"
     inkscape:cy="297.08695"
     inkscape:window-x="0"
     inkscape:window-y="0"
     inkscape:window-maximized="1"
     inkscape:current-layer="svg4" />
  <rect
     width="800"
     height="600"
     style="fill:black;stroke:black"
     id="rect2" />
  <path
     style="fill:none;stroke:#aaaaaa;stroke-width:40;stroke-linecap:butt;stroke-linejoin:miter;stroke-miterlimit:4;stroke-dasharray:none;stroke-opacity:1"
     d="m 677.1453,309.81653 c -20.97303,-1.94772 -49.73669,3.44547 -67.71443,23.22002 -17.97775,19.77455 -25.16846,53.93043 -43.74515,71.00992 -18.57668,17.07949 -48.3422,17.07948 -63.42167,3.6587 -15.07947,-13.42078 -15.07946,-39.91284 -15.52891,-64.93108 -0.44944,-25.01823 -1.34831,-48.389 -6.29211,-65.91645 -4.94379,-17.52746 -13.93243,-29.21269 -35.35478,-33.70698 -21.42236,-4.4943 -55.2782,-1.79782 -76.5525,10.93606 -21.2743,12.73387 -29.96247,35.50285 -34.30746,55.12931 -4.345,19.62645 -4.345,36.10449 -7.04152,59.7748 -2.69653,23.6703 -8.08928,54.52884 -29.51344,65.31661 -21.42416,10.78778 -58.87287,1.5005 -78.49919,-29.21243 -19.62631,-30.71292 -21.42397,-82.84511 -20.37521,-123.89334 1.04876,-41.04822 4.94384,-71.01037 15.58085,-94.23098 10.63701,-23.2206 28.01505,-39.69978 65.91717,-48.68795 37.90212,-8.98817 96.32831,-10.48628 141.4213,-9.88698 45.09298,0.59929 76.85287,3.29588 99.17411,18.87594 22.32124,15.58005 35.20477,44.04365 64.1193,58.42593 28.91453,14.38229 73.85705,14.68191 99.1748,7.19077 25.31774,-7.49114 31.01055,-22.77184 39.10019,-40.44906 8.08963,-17.67722 18.57685,-37.75276 14.23198,-59.92421 C 733.17376,90.343674 713.99798,66.074328 614.97362,54.83858 515.94927,43.602832 337.77554,45.393522 231.14396,52.010805 124.51237,58.628088 91.086143,69.969128 70.411611,100.53102 c -20.674533,30.5619 -28.464422,80.29735 -32.958839,146.21507 -4.494417,65.91773 -5.692876,148.01216 6.891427,200.14698 12.584304,52.13483 38.950626,74.30651 139.474271,86.29136 100.52365,11.98484 275.20269,13.78257 376.47473,15.58033 101.27204,1.79775 129.13684,3.59548 149.2112,-15.58092 20.07436,-19.17641 32.35884,-59.32569 33.55705,-96.62831 1.19821,-37.30262 -8.6893,-71.75908 -20.22453,-93.63105 -11.53524,-21.87197 -24.71859,-31.16024 -45.69162,-33.10795 z"
     id="path817"
     inkscape:connector-curvature="0"
     inkscape:path-effect="#path-effect819"
     inkscape:original-d="m 684.93479,302.47584 c -28.76267,5.39219 -57.52633,10.78537 -86.29099,16.17956 -7.18992,34.15586 -14.38064,68.31174 -21.57276,102.47056 -29.962,-0.001 -59.72752,-0.001 -89.88646,-1e-5 0.001,-26.84156 0.001,-53.33362 1e-5,-79.99894 -0.89785,-23.37119 -1.79673,-46.74196 -2.69659,-70.11144 -8.98765,-11.68624 -17.97629,-23.37147 -26.96594,-35.05572 -33.85624,2.6956 -67.71208,5.39208 -101.57169,8.08978 -8.68838,22.77117 -17.37655,45.54015 -26.06708,68.31371 0.001,16.47914 0.001,32.95718 0,49.43756 -5.39225,30.86037 -10.785,61.71891 -16.17956,92.58305 -37.45427,-9.28991 -74.90298,-18.57719 -112.35807,-27.8648 -1.7968,-52.1371 -3.59446,-104.26929 -5.39319,-156.40244 3.89608,-29.96315 7.79116,-59.9253 11.68524,-89.88646 17.37906,-16.48018 34.7571,-32.95936 52.13415,-49.43755 58.42719,-1.4991 116.85338,-2.99721 175.27858,-4.49432 31.76088,2.69559 63.52077,5.39219 95.27964,8.08978 12.88473,28.46304 25.76825,56.92664 38.65118,85.39213 44.94494,0.29863 89.88746,0.59825 134.82968,0.89887 5.69381,-15.2817 11.38662,-30.56239 17.07843,-45.84209 10.48729,-20.07475 20.97451,-40.15029 31.46026,-60.22393 C 733.17486,90.342801 713.99908,66.073456 694.8223,41.805113 515.94926,43.601842 337.77553,45.392532 158.20017,47.1983 124.51217,58.627494 91.085942,69.968535 57.527331,81.355153 49.737901,131.09305 41.948012,180.8285 34.156853,230.56667 c -1.197513,82.09716 -2.395972,164.19159 -3.595458,246.28889 26.368016,22.17126 52.734337,44.34294 79.100075,66.51597 174.68066,1.79673 349.3597,3.59446 524.03804,5.39319 27.8658,1.79673 55.7306,3.59446 83.5944,5.39319 12.28549,-40.15028 24.56997,-80.29956 36.85345,-120.44786 -9.88651,-34.45748 -19.77402,-68.91394 -29.66253,-103.36942 -13.18235,-9.28926 -26.36569,-18.57753 -39.55004,-27.86479 z"
     sodipodi:nodetypes="cccccccccccccccccccccccccccccccc" />
  <path
     style="fill:#aaaaaa;fill-opacity:1;stroke:#aaaaaa;stroke-width:0.7787028px;stroke-linecap:butt;stroke-linejoin:miter;stroke-opacity:1"
     d="m -315.35127,1061.1164 c -2.24761,8.9937 1.94708,18.6229 9.28855,23.801 7.34148,5.1781 17.82778,5.9048 26.66616,1.6352 8.83838,-4.2697 16.02986,-13.5363 15.68876,-22.7657 -0.34111,-9.2295 -8.648,-18.9306 -15.23919,-23.6544 -6.59119,-4.7239 -11.68488,-4.7239 -18.57712,-0.5447 -6.89224,4.1791 -15.57954,12.5349 -17.82716,21.5286 z"
     id="path924"
     inkscape:connector-curvature="0"
     inkscape:path-effect="#path-effect926"
     inkscape:original-d="m -321.79351,1060.481 c 4.1957,9.6286 8.3904,19.2578 12.5841,28.8877 10.48821,0.7262 20.97451,1.4529 31.46026,2.1802 7.19132,-9.2657 14.38284,-18.5323 21.57275,-27.7977 -7.78854,-9.2657 -16.17856,-18.8956 -24.26934,-28.3426 -5.09244,-6e-4 -10.18613,-6e-4 -15.2807,0 -8.68973,8.3585 -17.37705,16.7143 -26.06707,25.0724 z" />
  <path
     style="fill:none;stroke:#ffffff;stroke-width:2;stroke-linecap:butt;stroke-linejoin:miter;stroke-miterlimit:4;stroke-dasharray:none;stroke-opacity:1"
     d="m 677.1453,309.81653 c -20.97303,-1.94772 -49.73669,3.44547 -67.71443,23.22002 -17.97775,19.77455 -25.16846,53.93043 -43.74515,71.00992 -18.57668,17.07949 -48.3422,17.07948 -63.42167,3.6587 -15.07947,-13.42078 -15.07946,-39.91284 -15.52891,-64.93108 -0.44944,-25.01823 -1.34831,-48.389 -6.29211,-65.91645 -4.94379,-17.52746 -13.93243,-29.21269 -35.35478,-33.70698 -21.42236,-4.4943 -55.27819,-1.79782 -76.55249,10.93606 -21.2743,12.73387 -29.96247,35.50285 -34.30746,55.12931 -4.345,19.62645 -4.345,36.10449 -7.04152,59.7748 -2.69653,23.6703 -8.08928,54.52884 -29.51344,65.31661 -21.42416,10.78778 -58.87287,1.5005 -78.49919,-29.21243 -19.62631,-30.71292 -21.42397,-82.84511 -20.37521,-123.89334 1.04876,-41.04822 4.94384,-71.01037 15.58085,-94.23098 10.63701,-23.2206 28.01505,-39.69978 65.91717,-48.68795 37.90212,-8.98817 96.32831,-10.48628 141.42129,-9.88698 45.09298,0.59929 76.85287,3.29588 99.17411,18.87594 22.32124,15.58005 35.20477,44.04365 64.1193,58.42593 28.91453,14.38229 73.85705,14.68191 99.1748,7.19077 25.31774,-7.49114 31.01055,-22.77184 39.10019,-40.44906 8.08963,-17.67722 18.57685,-37.75276 14.23198,-59.92421 C 733.17376,90.343673 713.99797,66.074325 614.97362,54.838578 515.94927,43.602831 337.77555,45.393522 231.14396,52.010805 124.51237,58.628087 91.086143,69.969127 70.411612,100.53102 c -20.674531,30.5619 -28.464418,80.29735 -32.958834,146.21507 -4.494416,65.91773 -5.692875,148.01216 6.891426,200.14698 12.584301,52.13483 38.950621,74.30651 139.474276,86.29136 100.52365,11.98484 275.20268,13.78257 376.47472,15.58033 101.27204,1.79775 129.13684,3.59548 149.2112,-15.58092 20.07436,-19.17641 32.35884,-59.32569 33.55705,-96.62831 1.19821,-37.30262 -8.6893,-71.75908 -20.22453,-93.63105 -11.53524,-21.87197 -24.71859,-31.16024 -45.69162,-33.10795 z"
     id="path817-8"
     inkscape:connector-curvature="0"
     inkscape:path-effect="#path-effect819-9"
     inkscape:original-d="m 684.93479,302.47584 c -28.76267,5.39219 -57.52633,10.78537 -86.29099,16.17956 -7.18992,34.15586 -14.38064,68.31174 -21.57276,102.47056 -29.962,-0.001 -59.72752,-0.001 -89.88646,-1e-5 0.001,-26.84156 0.001,-53.33362 1e-5,-79.99894 -0.89785,-23.37119 -1.79673,-46.74196 -2.69659,-70.11144 -8.98765,-11.68624 -17.97629,-23.37147 -26.96594,-35.05572 -33.85624,2.6956 -67.71207,5.39208 -101.57168,8.08978 -8.68838,22.77117 -17.37655,45.54015 -26.06708,68.31371 10e-4,16.47914 10e-4,32.95718 0,49.43756 -5.39225,30.86037 -10.785,61.71891 -16.17956,92.58305 -37.45427,-9.28991 -74.90298,-18.57719 -112.35807,-27.8648 -1.7968,-52.1371 -3.59446,-104.26929 -5.39319,-156.40244 3.89608,-29.96315 7.79116,-59.9253 11.68524,-89.88646 17.37906,-16.48018 34.7571,-32.95936 52.13415,-49.43755 58.42719,-1.4991 116.85338,-2.99721 175.27857,-4.49432 31.76088,2.69559 63.52077,5.39219 95.27964,8.08978 12.88473,28.46304 25.76825,56.92664 38.65118,85.39213 44.94494,0.29863 89.88746,0.59825 134.82968,0.89887 5.69381,-15.2817 11.38662,-30.56239 17.07843,-45.84209 10.48729,-20.07475 20.97451,-40.15029 31.46026,-60.22393 -19.17477,-24.270339 -38.35055,-48.539689 -57.52733,-72.808029 -178.87304,1.79673 -357.04676,3.58742 -536.62213,5.39319 -33.688,11.42919 -67.114229,22.77023 -100.672839,34.15685 -7.78943,49.737899 -15.57932,99.473349 -23.37047,149.211519 -1.19752,82.09716 -2.39598,164.19159 -3.59546,246.28889 26.36801,22.17126 52.73433,44.34294 79.100069,66.51597 174.68067,1.79673 349.3597,3.59446 524.03804,5.39319 27.8658,1.79673 55.7306,3.59446 83.5944,5.39319 12.28549,-40.15028 24.56997,-80.29956 36.85345,-120.44786 -9.88651,-34.45748 -19.77402,-68.91394 -29.66253,-103.36942 -13.18235,-9.28926 -26.36569,-18.57753 -39.55004,-27.86479 z"
     sodipodi:nodetypes="cccccccccccccccccccccccccccccccc" />
</svg>
