<?xml version="1.0" encoding="UTF-8" standalone="no"?>
<svg
   xmlns:dc="http://purl.org/dc/elements/1.1/"
   xmlns:cc="http://creativecommons.org/ns#"
   xmlns:rdf="http://www.w3.org/1999/02/22-rdf-syntax-ns#"
   xmlns:svg="http://www.w3.org/2000/svg"
   xmlns="http://www.w3.org/2000/svg"
   xmlns:sodipodi="http://sodipodi.sourceforge.net/DTD/sodipodi-0.dtd"
   xmlns:inkscape="http://www.inkscape.org/namespaces/inkscape"
   version="1.1"
   width="800"
   height="600"
   id="svg4"
   sodipodi:docname="circuit5.svg"
   inkscape:version="0.92.3 (2405546, 2018-03-11)">
  <metadata
     id="metadata10">
    <rdf:RDF>
      <cc:Work
         rdf:about="">
        <dc:format>image/svg+xml</dc:format>
        <dc:type
           rdf:resource="http://purl.org/dc/dcmitype/StillImage" />
        <dc:title></dc:title>
      </cc:Work>
    </rdf:RDF>
  </metadata>
  <defs
     id="defs8">
    <inkscape:path-effect
       effect="bspline"
       id="path-effect819"
       is_visible="true"
       weight="33.333333"
       steps="2"
       helper_size="0"
       apply_no_weight="true"
       apply_with_weight="true"
       only_selected="false" />
    <inkscape:path-effect
       effect="bspline"
       id="path-effect819-5"
       is_visible="true"
       weight="33.333333"
       steps="2"
       helper_size="0"
       apply_no_weight="true"
       apply_with_weight="true"
       only_selected="false" />
  </defs>
  <sodipodi:namedview
     pagecolor="#ffffff"
     bordercolor="#666666"
     borderopacity="1"
     objecttolerance="10"
     gridtolerance="10"
     guidetolerance="10"
     inkscape:pageopacity="0"
     inkscape:pageshadow="2"
     inkscape:window-width="1682"
     inkscape:window-height="925"
     id="namedview6"
     showgrid="false"
     inkscape:zoom="1.1125147"
     inkscape:cx="441.14048"
     inkscape:cy="293.07368"
     inkscape:window-x="185"
     inkscape:window-y="108"
     inkscape:window-maximized="0"
     inkscape:current-layer="svg4" />
  <rect
     width="800"
     height="600"
     style="fill:black;stroke:black"
     id="rect2" />
  <path
     style="fill:none;stroke:#aaaaaa;stroke-width:40;stroke-linecap:butt;stroke-linejoin:miter;stroke-opacity:1;stroke-miterlimit:4;stroke-dasharray:none"
     d="m 339.02274,36.411925 c -56.17903,0 -131.08441,0 -176.47708,4.494047 -45.39267,4.494047 -61.2724,13.482574 -73.857058,24.868466 C 76.103948,77.16033 66.816374,90.94189 61.43518,106.67383 c -5.381194,15.73194 -6.903974,34.0053 -3.00874,50.18571 3.895233,16.18041 13.182943,30.56138 25.91731,41.34804 12.734367,10.78667 28.91365,17.97746 67.86383,21.72262 38.95018,3.74517 100.67398,4.0448 136.92755,10.63632 36.25358,6.59152 47.04013,19.47545 55.32056,35.64268 8.28044,16.16723 13.89145,35.06751 16.13941,53.48421 2.24796,18.4167 1.04815,36.11399 -6.44225,48.99814 -7.4904,12.88416 -21.27216,20.97345 -34.20173,28.99473 -12.92957,8.02127 -25.42201,16.248 -57.63386,20.29327 -32.21184,4.04527 -84.34108,4.04527 -120.74519,7.49078 -36.40411,3.44552 -57.077603,10.33668 -72.358755,20.07439 -15.281151,9.73771 -25.168086,22.32108 -30.411895,34.4563 -5.243809,12.13521 -5.842999,23.81942 -2.996441,36.1048 2.846559,12.28538 9.138046,25.16795 20.374363,36.4042 11.236318,11.23626 27.415361,20.82384 75.953738,13.03364 48.53838,-7.7902 129.43769,-32.95887 186.81488,-46.14204 57.37719,-13.18318 91.23493,-14.38168 125.39086,-3.59556 34.15593,10.78613 68.61345,33.55806 112.05877,45.09341 43.44532,11.53535 95.87944,11.83498 128.68798,8.83853 32.80854,-2.99645 45.99213,-9.28861 56.62807,-19.47541 10.63593,-10.18679 18.72645,-24.27029 22.4664,-40.4488 3.73995,-16.17852 3.15063,-33.85807 -5.0884,-48.23905 -8.23904,-14.38098 -24.11984,-25.16794 -41.7975,-34.60604 -17.67766,-9.43811 -37.15279,-17.52778 -65.76683,-19.47543 -28.61404,-1.94765 -66.36539,2.24695 -99.77439,5.38238 -33.40899,3.13543 -63.06915,5.25401 -83.74388,-3.73511 -20.67473,-8.98912 -32.65915,-29.06303 -34.7562,-47.63989 -2.09705,-18.57687 5.69323,-35.65555 20.82365,-49.13783 15.13043,-13.48228 37.60363,-23.37049 48.83883,-38.50106 11.2352,-15.13057 11.2352,-35.50593 2.09744,-49.58735 -9.13776,-14.08142 -27.41557,-21.87196 -37.60303,-34.45683 -10.18745,-12.58487 -12.28475,-29.96246 -9.58781,-42.69626 2.69694,-12.7338 10.18785,-20.82398 20.13184,-27.74115 9.94399,-6.91717 22.11576,-12.55775 36.34664,-12.10826 14.23088,0.44949 30.41203,7.04181 45.99185,17.97765 15.57983,10.93584 30.56137,26.21702 43.59481,48.98799 13.03345,22.77097 24.11944,53.03272 40.32297,72.7538 16.20353,19.72107 38.02865,29.118 55.85623,26.72058 17.82758,-2.39742 31.91011,-16.47995 43.14529,-38.50116 11.23517,-22.02121 19.62517,-51.98549 22.77104,-81.4975 3.14586,-29.51201 1.04843,-58.57645 -8.23944,-78.800186 C 748.45529,54.689348 731.97558,43.303367 707.55656,36.1124 683.13755,28.921433 650.77884,25.925256 609.87991,26.674281 c -40.89894,0.749025 -90.33512,5.243223 -133.78069,7.490433 -43.44557,2.247211 -80.89744,2.247211 -137.07648,2.247211 z"
     id="path817"
     inkscape:connector-curvature="0"
     inkscape:path-effect="#path-effect819"
     inkscape:original-d="m 357.74809,36.411925 c -74.90438,-10e-4 -149.80976,-10e-4 -224.71614,0 -15.87915,8.987766 -31.75888,17.976291 -47.639817,26.965937 -9.287961,13.782619 -18.575535,27.564179 -27.864802,41.347768 -1.497232,17.67815 -2.995215,35.95358 -4.494322,53.93187 9.289823,14.3817 18.577534,28.76267 27.864801,43.1455 16.180843,7.19004 32.36012,14.38084 48.53869,21.57275 61.72126,0.29862 123.44506,0.59825 185.16609,0.89887 10.7872,12.88251 21.57375,25.76645 32.35913,38.65117 5.69385,19.47455 11.38662,38.35056 17.07842,57.52733 -0.89789,17.67727 -2.39597,35.35434 -3.59545,53.03301 -13.78242,8.08927 -27.56418,16.17856 -41.34777,24.26935 -11.98489,8.08947 -24.56797,16.17856 -36.85345,24.26934 -52.13805,-10e-4 -104.26729,-10e-4 -156.40243,0 -20.67328,6.89043 -41.346772,13.78159 -62.021657,20.67388 -9.887084,12.58384 -19.77402,25.16721 -29.66253,37.75231 -0.598296,11.68527 -1.197486,23.36948 -1.797729,35.05572 6.293616,12.88388 12.585104,25.76645 18.876156,38.65118 16.18108,9.58719 32.360123,19.17477 48.538685,28.76366 80.897305,-25.16873 161.796615,-50.33741 242.693425,-75.50462 33.85773,-1.19947 67.71547,-2.39797 101.5717,-3.59546 34.45642,22.76954 68.91395,45.54147 103.36942,68.31371 52.43441,0.29862 104.86853,0.59824 157.3013,0.89886 13.1841,-6.29293 26.36769,-12.5851 39.55004,-18.87615 8.09004,-14.08193 16.18056,-28.16542 24.26934,-42.24664 -0.59819,-18.27637 -1.19748,-35.95558 -1.79773,-53.93187 -15.87808,-10.78679 -31.75888,-21.57375 -47.63982,-32.35912 -19.47466,-8.0909 -38.94979,-16.18057 -58.42619,-24.26935 -37.75228,4.19381 -75.50363,8.38841 -113.25694,12.58411 -29.06313,2.09641 -58.72481,4.1937 -88.08872,6.29205 -11.9843,-20.07637 -23.96872,-40.15028 -35.95459,-60.22393 7.79105,-17.07917 15.58132,-34.15785 23.37048,-51.23528 22.47103,-9.88781 44.94423,-19.77602 67.41484,-29.66253 10e-4,-20.37416 10e-4,-40.74952 0,-61.12279 -18.27501,-7.79077 -36.55282,-15.58131 -54.83073,-23.37047 -2.09641,-17.37951 -4.1937,-34.7571 -6.29206,-52.13415 7.49117,-8.09038 14.98208,-16.18056 22.47162,-24.26934 12.28391,-5.99266 24.56996,-11.38662 36.85345,-17.07843 16.17897,6.59003 32.36012,13.18235 48.53868,19.77502 14.98161,15.27922 29.96315,30.5604 44.94323,45.8421 11.087,30.26079 22.17299,60.52254 33.25799,90.78532 21.27452,9.28743 43.1465,18.57553 64.71825,27.8648 14.08289,-14.0829 28.16542,-28.16543 42.24663,-42.24664 8.38981,-29.96102 16.7798,-59.9253 25.16821,-89.88645 -2.09627,-29.06314 -4.1937,-58.127577 -6.29206,-87.189865 C 748.45608,54.6882 731.97637,43.30222 715.49618,31.917602 c -32.35853,-2.997253 -64.71724,-5.99343 -97.07737,-8.988645 -49.43792,4.493448 -98.8741,8.987645 -148.31265,13.482968 -37.45251,-10e-4 -74.90438,-10e-4 -112.35807,0 z" />
  <path
     style="fill:none;stroke:#ffffff;stroke-width:2;stroke-linecap:butt;stroke-linejoin:miter;stroke-miterlimit:4;stroke-dasharray:none;stroke-opacity:1"
     d="m 339.02274,36.411925 c -56.17903,0 -131.08441,0 -176.47708,4.494048 -45.39268,4.494047 -61.2724,13.482573 -73.857058,24.868467 -12.584657,11.385893 -21.872229,25.167451 -27.253422,40.8994 -5.381194,15.73194 -6.903973,34.0053 -3.008739,50.18571 3.895233,16.18041 13.182942,30.56138 25.917308,41.34804 12.734366,10.78667 28.913651,17.97746 67.863831,21.72262 38.95018,3.74517 100.67398,4.0448 136.92755,10.63632 36.25358,6.59152 47.04013,19.47545 55.32056,35.64268 8.28044,16.16722 13.89146,35.0675 16.13941,53.4842 2.24796,18.4167 1.04815,36.11399 -6.44225,48.99814 -7.4904,12.88416 -21.27216,20.97345 -34.20173,28.99473 -12.92957,8.02127 -25.42201,16.248 -57.63386,20.29327 -32.21184,4.04527 -84.34108,4.04527 -120.74519,7.49078 -36.40411,3.44552 -57.0776,10.33668 -72.358754,20.07439 -15.281153,9.73771 -25.168089,22.32108 -30.411898,34.4563 -5.243809,12.13521 -5.843,23.81942 -2.996439,36.1048 2.846561,12.28539 9.138046,25.16795 20.374363,36.40421 11.236317,11.23625 27.415361,20.82384 75.953738,13.03364 48.53839,-7.7902 129.4377,-32.95888 186.81489,-46.14205 57.37718,-13.18317 91.23492,-14.38167 125.39085,-3.59555 34.15593,10.78613 68.61345,33.55806 112.05877,45.09341 43.44532,11.53535 95.87944,11.83498 128.68798,8.83853 32.80854,-2.99645 45.99213,-9.28862 56.62807,-19.47541 10.63593,-10.18679 18.72645,-24.27029 22.4664,-40.4488 3.73995,-16.17852 3.15063,-33.85807 -5.0884,-48.23905 -8.23904,-14.38098 -24.11984,-25.16794 -41.7975,-34.60604 -17.67766,-9.43811 -37.15279,-17.52778 -65.76683,-19.47543 -28.61404,-1.94765 -66.36539,2.24695 -99.77439,5.38238 -33.40899,3.13543 -63.06915,5.25401 -83.74388,-3.73511 -20.67473,-8.98912 -32.65915,-29.06303 -34.7562,-47.6399 -2.09705,-18.57686 5.69323,-35.65554 20.82365,-49.13782 15.13043,-13.48228 37.60363,-23.37049 48.83883,-38.50106 11.2352,-15.13057 11.2352,-35.50593 2.09744,-49.58735 -9.13776,-14.08142 -27.41557,-21.87196 -37.60303,-34.45683 -10.18745,-12.58487 -12.28475,-29.96246 -9.58781,-42.69626 2.69694,-12.7338 10.18785,-20.82398 20.13184,-27.74115 9.94399,-6.91717 22.11576,-12.55775 36.34664,-12.10826 14.23088,0.44949 30.41203,7.04181 45.99185,17.97765 15.57983,10.93584 30.56137,26.21702 43.59481,48.98799 13.03345,22.77097 24.11944,53.03272 40.32297,72.7538 16.20353,19.72107 38.02865,29.118 55.85623,26.72058 17.82758,-2.39742 31.91011,-16.47995 43.14529,-38.50116 11.23517,-22.02121 19.62517,-51.98549 22.77104,-81.4975 3.14586,-29.51201 1.04843,-58.576458 -8.23944,-78.800193 C 748.45529,54.689351 731.97558,43.30337 707.55656,36.112402 683.13755,28.921434 650.77884,25.925256 609.87991,26.67428 c -40.89894,0.749025 -90.33512,5.243223 -133.78069,7.490434 -43.44557,2.247211 -80.89744,2.247211 -137.07648,2.247211 z"
     id="path817-6"
     inkscape:connector-curvature="0"
     inkscape:path-effect="#path-effect819-5"
     inkscape:original-d="m 357.74809,36.411925 c -74.90438,-10e-4 -149.80976,-10e-4 -224.71614,0 -15.87915,8.98777 -31.75888,17.97629 -47.639819,26.96594 -9.28796,13.78262 -18.57553,27.56418 -27.8648,41.347765 -1.49723,17.67816 -2.99522,35.95359 -4.49432,53.93188 9.28982,14.3817 18.57753,28.76267 27.8648,43.1455 16.18084,7.19004 32.360119,14.38084 48.538689,21.57275 61.72126,0.29862 123.44506,0.59825 185.16609,0.89887 10.7872,12.88251 21.57375,25.76645 32.35913,38.65117 5.69385,19.47455 11.38662,38.35056 17.07842,57.52732 -0.89789,17.67727 -2.39597,35.35434 -3.59545,53.03301 -13.78242,8.08927 -27.56418,16.17856 -41.34777,24.26935 -11.98489,8.08947 -24.56797,16.17856 -36.85345,24.26934 -52.13805,-10e-4 -104.26729,-10e-4 -156.40243,0 -20.67328,6.89043 -41.346769,13.78159 -62.021659,20.67388 -9.88708,12.58384 -19.77402,25.16721 -29.66253,37.75231 -0.59829,11.68527 -1.19748,23.36948 -1.79773,35.05572 6.29362,12.88389 12.58511,25.76645 18.87616,38.65118 16.18108,9.58719 32.36012,19.17478 48.53868,28.76367 80.897309,-25.16874 161.796619,-50.33742 242.693429,-75.50462 33.85773,-1.19948 67.71547,-2.39797 101.5717,-3.59546 34.45642,22.76954 68.91395,45.54147 103.36942,68.31371 52.43441,0.29862 104.86853,0.59824 157.3013,0.89886 13.1841,-6.29294 26.36769,-12.5851 39.55004,-18.87616 8.09004,-14.08192 16.18056,-28.16541 24.26934,-42.24663 -0.59819,-18.27637 -1.19748,-35.95558 -1.79773,-53.93187 -15.87808,-10.78679 -31.75888,-21.57375 -47.63982,-32.35912 -19.47466,-8.0909 -38.94979,-16.18057 -58.42619,-24.26935 -37.75228,4.19381 -75.50363,8.38841 -113.25694,12.58411 -29.06313,2.09641 -58.72481,4.1937 -88.08872,6.29205 -11.9843,-20.07637 -23.96872,-40.15029 -35.95459,-60.22393 7.79105,-17.07917 15.58132,-34.15785 23.37048,-51.23528 22.47103,-9.88781 44.94423,-19.77602 67.41484,-29.66253 10e-4,-20.37416 10e-4,-40.74952 0,-61.12279 -18.27501,-7.79077 -36.55282,-15.58131 -54.83073,-23.37047 -2.09641,-17.37951 -4.1937,-34.7571 -6.29206,-52.13415 7.49117,-8.09038 14.98208,-16.18056 22.47162,-24.26934 12.28391,-5.99266 24.56996,-11.38662 36.85345,-17.07843 16.17897,6.59003 32.36012,13.18235 48.53868,19.77502 14.98161,15.27922 29.96315,30.5604 44.94323,45.8421 11.087,30.26079 22.17299,60.52254 33.25799,90.78532 21.27452,9.28743 43.1465,18.57553 64.71825,27.8648 14.08289,-14.0829 28.16542,-28.16543 42.24663,-42.24664 8.38981,-29.96102 16.7798,-59.9253 25.16821,-89.88645 -2.09627,-29.06314 -4.1937,-58.127585 -6.29206,-87.189875 -16.47765,-11.38625 -32.95736,-22.77223 -49.43755,-34.15685 -32.35853,-2.99725 -64.71724,-5.99343 -97.07737,-8.98865 -49.43792,4.49345 -98.8741,8.98765 -148.31265,13.48297 -37.45251,-10e-4 -74.90438,-10e-4 -112.35807,0 z" />
</svg>
