<?xml version="1.0" encoding="UTF-8" standalone="no"?>
<svg
   xmlns:dc="http://purl.org/dc/elements/1.1/"
   xmlns:cc="http://creativecommons.org/ns#"
   xmlns:rdf="http://www.w3.org/1999/02/22-rdf-syntax-ns#"
   xmlns:svg="http://www.w3.org/2000/svg"
   xmlns="http://www.w3.org/2000/svg"
   id="svg4"
   height="600"
   width="800"
   version="1.1">
  <metadata
     id="metadata10">
    <rdf:RDF>
      <cc:Work
         rdf:about="">
        <dc:format>image/svg+xml</dc:format>
        <dc:type
           rdf:resource="http://purl.org/dc/dcmitype/StillImage" />
        <dc:title></dc:title>
      </cc:Work>
    </rdf:RDF>
  </metadata>
  <defs
     id="defs8" />
  <rect
     id="rect2"
     style="fill:black;stroke:black"
     height="600"
     width="800" />
  <path
     id="path858"
     d="M 48.688373,169.74274 C 41.347722,140.97889 40.448856,123.30121 44.344386,108.76949 48.239916,94.237765 56.92894,82.852146 65.917763,75.062272 74.906586,67.272397 84.194853,63.077696 188.01361,58.583634 c 103.81876,-4.494063 302.16821,-9.288008 410.48133,-10.78606 108.31311,-1.498051 126.59002,0.299678 140.37211,7.340664 13.78209,7.040986 23.07035,19.325463 23.07063,38.650527 2.7e-4,19.325065 -9.28764,45.690745 -22.92057,61.122295 -13.63293,15.43156 -31.60771,19.92525 -111.0156,16.92891 -79.40789,-2.99634 -220.21484,-13.48196 -299.31282,-14.99933 -79.09799,-1.51737 -96.46975,5.93463 -110.85294,20.3172 -14.38318,14.38257 -25.77283,35.69204 -15.58163,59.44004 10.19121,23.748 43.13401,50.89532 39.98832,76.51412 -3.14568,25.61881 -41.79325,50.18548 -50.18352,74.15632 -8.39027,23.97083 13.48131,47.34047 96.62719,53.3329 83.14588,5.99243 227.56283,-5.39314 309.20959,-9.88737 81.64676,-4.49423 100.52292,-2.09725 115.2039,5.24337 14.68099,7.34063 25.16735,19.62466 31.45961,32.35869 6.29226,12.73403 8.38944,25.91634 4.94412,38.95024 -3.44531,13.0339 -12.43259,25.91567 -29.81244,33.85703 -17.37984,7.94137 -43.1444,10.93725 -151.0082,11.68637 -107.8638,0.74912 -297.82296,-0.74898 -399.84503,-7.7901 C 66.815588,537.97834 52.733489,525.39433 43.445066,511.91098 34.156643,498.42763 29.662333,484.04584 33.257961,461.57436 36.853589,439.10287 48.539148,408.54064 58.2766,376.63163 68.014052,344.72261 75.804518,311.46331 72.808307,274.91048 69.812097,238.35765 56.029024,198.50659 48.688373,169.74274 Z"
     style="fill:none;stroke:#aaaaaa;stroke-width:40;stroke-linecap:butt;stroke-linejoin:miter;stroke-miterlimit:4;stroke-dasharray:none;stroke-opacity:1" />
  <path
     id="path858-3"
     d="M 48.688373,169.74274 C 41.347722,140.97889 40.448858,123.3012 44.344387,108.76948 48.239916,94.23776 56.928944,82.852138 65.917766,75.062266 74.906587,67.272393 84.194847,63.077693 188.01361,58.583629 291.83237,54.089564 490.18182,49.295621 598.49494,47.79757 c 108.31311,-1.49805 126.59002,0.299679 140.37211,7.340664 13.78209,7.040984 23.07035,19.325461 23.07063,38.650523 2.7e-4,19.325063 -9.28764,45.690753 -22.92057,61.122303 -13.63293,15.43156 -31.60771,19.92525 -111.0156,16.92891 -79.40789,-2.99634 -220.21484,-13.48196 -299.31282,-14.99933 -79.09799,-1.51737 -96.46975,5.93463 -110.85294,20.3172 -14.38318,14.38257 -25.77283,35.69204 -15.58163,59.44004 10.19121,23.748 43.13401,50.89532 39.98832,76.51412 -3.14568,25.61881 -41.79325,50.18548 -50.18352,74.15632 -8.39027,23.97083 13.48131,47.34047 96.62719,53.3329 83.14588,5.99243 227.56283,-5.39314 309.20959,-9.88737 81.64676,-4.49423 100.52292,-2.09725 115.2039,5.24337 14.68099,7.34063 25.16735,19.62466 31.45961,32.35869 6.29226,12.73403 8.38944,25.91634 4.94412,38.95024 -3.44531,13.0339 -12.43259,25.91567 -29.81244,33.85703 -17.37984,7.94137 -43.1444,10.93725 -151.0082,11.68637 -107.8638,0.74912 -297.82296,-0.74898 -399.84503,-7.7901 C 66.815589,537.97834 52.73349,525.39434 43.445065,511.91099 34.15664,498.42764 29.66233,484.04585 33.257958,461.57436 36.853585,439.10287 48.539145,408.54064 58.276598,376.63163 68.01405,344.72261 75.804517,311.46331 72.808307,274.91048 69.812097,238.35765 56.029023,198.50659 48.688373,169.74274 Z"
     style="fill:none;stroke:#ffffff;stroke-width:2;stroke-linecap:butt;stroke-linejoin:miter;stroke-miterlimit:4;stroke-dasharray:none;stroke-opacity:1" />
</svg>
