<?xml version="1.0" encoding="UTF-8" standalone="no"?>
<svg
   xmlns:dc="http://purl.org/dc/elements/1.1/"
   xmlns:cc="http://creativecommons.org/ns#"
   xmlns:rdf="http://www.w3.org/1999/02/22-rdf-syntax-ns#"
   xmlns:svg="http://www.w3.org/2000/svg"
   xmlns="http://www.w3.org/2000/svg"
   xmlns:sodipodi="http://sodipodi.sourceforge.net/DTD/sodipodi-0.dtd"
   xmlns:inkscape="http://www.inkscape.org/namespaces/inkscape"
   id="svg4"
   height="600"
   width="800"
   version="1.1"
   sodipodi:docname="circuit3.svg"
   inkscape:export-filename="/home/corentin/perso/neurones/circuits/circuit3.png"
   inkscape:export-xdpi="95"
   inkscape:export-ydpi="95"
   inkscape:version="0.92.3 (2405546, 2018-03-11)">
  <sodipodi:namedview
     pagecolor="#ffffff"
     bordercolor="#666666"
     borderopacity="1"
     objecttolerance="10"
     gridtolerance="10"
     guidetolerance="10"
     inkscape:pageopacity="0"
     inkscape:pageshadow="2"
     inkscape:window-width="1223"
     inkscape:window-height="841"
     id="namedview8"
     showgrid="false"
     inkscape:zoom="12.586667"
     inkscape:cx="644.77451"
     inkscape:cy="222.95387"
     inkscape:window-x="304"
     inkscape:window-y="25"
     inkscape:window-maximized="0"
     inkscape:current-layer="svg4" />
  <metadata
     id="metadata10">
    <rdf:RDF>
      <cc:Work
         rdf:about="">
        <dc:format>image/svg+xml</dc:format>
        <dc:type
           rdf:resource="http://purl.org/dc/dcmitype/StillImage" />
        <dc:title />
      </cc:Work>
    </rdf:RDF>
  </metadata>
  <defs
     id="defs8" />
  <rect
     id="rect2"
     style="fill:black;stroke:black"
     height="600"
     width="800" />
  <path
     id="path899"
     d="m 63.22026,85.848834 c 3.894878,15.580866 16.179363,30.262316 14.831315,53.482586 -1.348048,23.22028 -16.328976,54.97985 -10.635995,86.89069 5.69298,31.91084 32.009596,63.90945 35.91239,92.42598 3.90279,28.51652 -14.639167,53.33882 -31.567887,80.45452 -16.928719,27.1157 -32.208617,56.47707 -38.501362,82.39586 -6.292746,25.91879 -3.596295,48.38922 8.089797,63.82049 11.686092,15.43127 32.358883,23.82023 70.560292,17.82773 38.2014,-5.9925 93.93238,-26.36727 139.6242,-25.61791 45.69181,0.74936 81.34678,22.62173 120.59717,22.62159 39.2504,-1.5e-4 82.09724,-21.87302 122.24609,-22.17224 40.14885,-0.29922 77.60154,20.97391 112.65744,27.11596 35.0559,6.14205 67.71513,-2.84673 90.18671,-12.13527 22.47157,-9.28853 34.75605,-18.87641 46.14164,-28.31453 11.3856,-9.43811 21.87235,-18.72637 25.31752,-29.66191 3.44518,-10.93553 -0.15058,-23.52067 -11.98511,-49.13715 -11.83452,-25.61649 -31.91004,-64.26936 -84.34357,-69.06336 -52.43353,-4.794 -137.22452,24.26864 -191.30756,25.76694 -54.08305,1.4983 -77.4532,-24.56841 -90.48679,-49.13796 -13.03358,-24.56955 -15.73013,-47.64005 -29.06271,-68.16329 -13.33257,-20.52324 -37.22325,-38.44125 -33.01419,-67.45177 4.20906,-29.01052 36.46024,-68.72726 41.10396,-98.98847 C 374.22733,88.546121 351.15648,67.872241 318.64807,73.115176 286.13967,78.358112 244.19421,109.5176 216.32771,107.42032 188.46122,105.32304 174.67913,69.969003 158.94958,51.692388 143.22002,33.415773 125.54234,32.217286 110.135,32.662928 94.727666,33.108569 81.498184,35.21326 72.658752,44.501731 63.819321,53.790202 59.325383,70.267971 63.22026,85.848834 Z"
     style="fill:none;stroke:#aaaaaa;stroke-width:40;stroke-linecap:butt;stroke-linejoin:miter;stroke-miterlimit:4;stroke-dasharray:none;stroke-opacity:1" />
  <path
     id="path899-8"
     d="m 63.220264,85.84883 c 3.89488,15.58086 16.179365,30.26231 14.831316,53.48259 -1.348049,23.22027 -16.328976,54.97983 -10.635996,86.89068 5.69298,31.91084 32.009599,63.90945 35.912386,92.42598 3.9028,28.51652 -14.639161,53.33882 -31.567882,80.45452 -16.92872,27.11571 -32.208616,56.47707 -38.501361,82.39586 -6.292746,25.91879 -3.596295,48.38922 8.089798,63.82049 11.686092,15.43127 32.358882,23.82023 70.560295,17.82773 38.2014,-5.9925 93.93238,-26.36727 139.6242,-25.61791 45.69181,0.74936 81.34678,22.62173 120.59717,22.62159 39.2504,-1.5e-4 82.09724,-21.87302 122.24609,-22.17224 40.14885,-0.29922 77.60154,20.97391 112.65744,27.11596 35.0559,6.14205 67.71513,-2.84673 90.18671,-12.13527 22.47157,-9.28853 34.75605,-18.87641 46.14164,-28.31453 11.3856,-9.43811 21.87235,-18.72637 25.31752,-29.66191 3.44518,-10.93553 -0.15058,-23.52067 -11.98511,-49.13715 -11.83452,-25.61649 -31.91004,-64.26936 -84.34357,-69.06336 -52.43353,-4.794 -137.22452,24.26864 -191.30756,25.76694 -54.08305,1.4983 -77.4532,-24.56841 -90.48679,-49.13796 -13.03358,-24.56955 -15.73013,-47.64005 -29.06271,-68.16329 -13.33257,-20.52324 -37.22325,-38.44125 -33.01419,-67.45177 4.20906,-29.01052 36.46025,-68.72726 41.10396,-98.98846 C 374.22734,88.546118 351.15649,67.872237 318.64808,73.115172 286.13967,78.358107 244.19421,109.51759 216.32772,107.42032 188.46123,105.32304 174.67915,69.969003 158.94959,51.692387 143.22003,33.415771 125.54235,32.217284 110.13501,32.662924 94.727672,33.108564 81.49819,35.213254 72.658757,44.501727 63.819323,53.790199 59.325385,70.26797 63.220264,85.84883 Z"
     style="fill:none;stroke:#ffffff;stroke-width:2;stroke-linecap:butt;stroke-linejoin:miter;stroke-miterlimit:4;stroke-dasharray:none;stroke-opacity:1" />
  <path
     style="fill:none;fill-rule:evenodd;stroke:#ff0000;stroke-width:5.00199986;stroke-linecap:butt;stroke-linejoin:miter;stroke-miterlimit:4;stroke-dasharray:5.00199986,5.00199986;stroke-dashoffset:2.50099993;stroke-opacity:1"
     d="m 651.05662,356.538 2.28294,39.80286"
     id="path815"
     inkscape:connector-type="polyline"
     inkscape:connector-curvature="0" />
</svg>
