<?xml version="1.0" encoding="UTF-8" standalone="no"?>
<svg
   xmlns:dc="http://purl.org/dc/elements/1.1/"
   xmlns:cc="http://creativecommons.org/ns#"
   xmlns:rdf="http://www.w3.org/1999/02/22-rdf-syntax-ns#"
   xmlns:svg="http://www.w3.org/2000/svg"
   xmlns="http://www.w3.org/2000/svg"
   xmlns:sodipodi="http://sodipodi.sourceforge.net/DTD/sodipodi-0.dtd"
   xmlns:inkscape="http://www.inkscape.org/namespaces/inkscape"
   version="1.1"
   width="1600"
   height="1200"
   id="svg4"
   sodipodi:docname="circuitFinalFun.svg"
   inkscape:export-filename="/home/corentin/perso/neurones/circuits/circuitFinalFun.png"
   inkscape:export-xdpi="96"
   inkscape:export-ydpi="96"
   inkscape:version="0.92.3 (2405546, 2018-03-11)">
  <metadata
     id="metadata10">
    <rdf:RDF>
      <cc:Work
         rdf:about="">
        <dc:format>image/svg+xml</dc:format>
        <dc:type
           rdf:resource="http://purl.org/dc/dcmitype/StillImage" />
        <dc:title />
      </cc:Work>
    </rdf:RDF>
  </metadata>
  <defs
     id="defs8">
    <inkscape:path-effect
       effect="bspline"
       id="path-effect819"
       is_visible="true"
       weight="33.333333"
       steps="2"
       helper_size="0"
       apply_no_weight="true"
       apply_with_weight="true"
       only_selected="false" />
    <inkscape:path-effect
       effect="bspline"
       id="path-effect819-8"
       is_visible="true"
       weight="33.333333"
       steps="2"
       helper_size="0"
       apply_no_weight="true"
       apply_with_weight="true"
       only_selected="false" />
  </defs>
  <sodipodi:namedview
     pagecolor="#ffffff"
     bordercolor="#666666"
     borderopacity="1"
     objecttolerance="10"
     gridtolerance="10"
     guidetolerance="10"
     inkscape:pageopacity="0"
     inkscape:pageshadow="2"
     inkscape:window-width="1920"
     inkscape:window-height="1021"
     id="namedview6"
     showgrid="false"
     inkscape:zoom="0.55625733"
     inkscape:cx="695.71904"
     inkscape:cy="505.62817"
     inkscape:window-x="0"
     inkscape:window-y="0"
     inkscape:window-maximized="1"
     inkscape:current-layer="svg4" />
  <rect
     width="1600"
     height="1200"
     x="0"
     y="0"
     fill="#000"
     stroke="#000"
     id="rect2" />
  <path
     style="fill:none;stroke:#aaaaaa;stroke-width:40;stroke-linecap:butt;stroke-linejoin:miter;stroke-miterlimit:4;stroke-dasharray:none;stroke-opacity:1"
     d="m 196.85241,71.625258 c 32.05943,-2.396866 70.41098,-2.396866 95.57848,5.393019 25.1675,7.789884 37.15267,23.370613 41.9467,47.340013 4.79402,23.96941 2.39707,56.32824 -5.84836,81.90422 -8.24544,25.57597 -22.91444,45.13464 -27.10947,67.00793 -4.19503,21.8733 1.79705,46.44083 15.28075,61.42243 13.48371,14.9816 34.45661,20.37463 56.62829,24.56925 22.17169,4.19461 45.54294,7.19093 62.19906,18.33916 16.65611,11.14824 27.08756,31.39753 21.24108,55.18218 -5.84649,23.78465 -28.3093,52.3185 -56.47429,67.89938 -28.16498,15.58088 -62.3205,18.57698 -82.69513,31.46016 -20.37463,12.88317 -26.966,35.65337 -24.26955,57.22755 2.69646,21.57417 14.68051,41.94706 56.62894,57.2283 41.94843,15.28124 113.85604,25.46816 171.9828,21.27314 58.12676,-4.19501 102.47074,-22.77154 115.95307,-41.9471 13.48234,-19.17557 -3.8957,-38.95058 2.99619,-60.52372 6.89188,-21.57314 38.05251,-44.94361 35.95457,-76.10386 -2.09793,-31.16024 -37.45327,-70.11104 -51.23565,-102.17111 -13.78238,-32.06007 -5.99222,-57.22828 -7.19097,-77.30244 -1.19874,-20.07415 -11.38587,-35.05522 -33.01245,-47.76663 -21.62658,-12.7114 -56.87349,-23.842 -76.04968,-41.82003 -19.1762,-17.97802 -23.37082,-43.14577 -18.27703,-66.21646 5.0938,-23.07069 19.47609,-44.04487 53.33202,-57.527161 33.85593,-13.482293 87.19148,-19.475051 137.82696,-21.871962 50.63547,-2.39691 98.57591,-1.198399 131.23393,11.385358 32.65801,12.583756 50.03641,36.553965 53.03298,58.725525 2.99657,22.17157 -8.38896,42.54568 1.19946,69.8128 9.58843,27.26712 40.14804,61.42198 45.8412,94.97906 5.69315,33.55708 -13.48259,66.51539 -8.68817,87.78938 4.79442,21.27399 33.55689,30.86148 44.34315,52.73329 10.78626,21.87181 3.59577,56.02662 0.59925,84.79195 -2.99653,28.76533 -1.79811,52.13454 11.08568,74.90628 12.88379,22.77174 37.45274,44.94371 62.92108,54.23188 25.4684,9.28818 51.835,5.69273 78.2017,-4.79433 26.3668,-10.48706 52.7335,-27.86511 67.4144,-56.02967 14.6809,-28.16456 17.6771,-67.1154 14.3811,-100.0735 -3.296,-32.9581 -12.8838,-59.92405 -20.9735,-96.47764 -8.0897,-36.5536 -14.6815,-82.69606 -14.1025,-120.07305 0.5789,-37.377 8.4102,-66.29239 20.01,-93.30976 11.5999,-27.01737 26.1528,-50.88421 48.3244,-68.26164 22.1715,-17.37743 51.5358,-27.565052 87.4894,-33.257642 35.9536,-5.69259 78.5016,-6.891125 110.7142,3.745219 32.2125,10.636343 54.6767,33.707653 68.7588,66.665613 14.0822,32.95796 20.0746,76.10345 23.3705,214.23117 3.2959,138.12773 3.8951,371.2287 2.1259,509.35698 -1.7692,138.12831 -6.0208,182.46661 -20.1027,210.63141 -14.082,28.1649 -38.0512,40.7487 -76.1044,50.6366 -38.0533,9.8879 -90.1849,17.0785 -143.8179,15.2807 -53.633,-1.7977 -108.7621,-12.5838 -152.2079,-34.1568 -43.4457,-21.5731 -75.2051,-53.9318 -86.2909,-80.5987 -11.0857,-26.6669 -1.4978,-47.64037 10.6747,-67.96502 12.1726,-20.32464 26.1794,-39.00031 40.5612,-58.1761 14.3818,-19.1758 28.7636,-38.35156 21.4232,-62.4698 -7.3404,-24.11823 -35.8059,-52.58373 -78.052,-66.06673 -42.24615,-13.48299 -97.97575,-11.68526 -136.62733,9.88729 -38.65157,21.57255 -60.22393,62.91955 -66.21663,98.87486 -5.9927,35.9553 3.59491,66.51583 -0.29987,95.27948 -3.89479,28.76362 -21.27249,55.72902 -54.53132,77.60212 -33.25882,21.8732 -82.39463,38.6513 -135.72854,48.227 -53.33392,9.5758 -112.05732,11.9974 -162.99345,12.9003 -50.93612,0.903 -95.87846,0.2956 -145.01708,-4.798 -49.13862,-5.0936 -103.0693,-14.6813 -141.12187,-34.7563 -38.05257,-20.0751 -60.22422,-50.636 -65.91669,-76.7035 -5.69248,-26.06752 5.09396,-47.6404 20.37439,-64.11901 15.28044,-16.4786 35.05656,-27.86485 58.12646,-31.75964 23.06991,-3.89479 49.43818,-0.29911 86.91546,8.90537 37.47729,9.20449 87.16506,24.3532 131.50903,29.14701 44.34396,4.7938 83.89452,-0.59946 120.80089,-11.27117 36.90637,-10.67172 72.15595,-27.081 89.83302,-46.25663 17.67707,-19.17563 18.27633,-41.34839 9.58768,-62.92018 -8.68866,-21.57179 -26.66678,-42.54626 -59.02525,-51.53491 -32.35847,-8.98864 -79.09961,-5.99241 -133.03219,-3.5954 -53.93258,2.39701 -115.05398,4.19469 -167.82011,-2.60389 C 221.65547,776.52057 176.17803,760.75506 144.71727,734.98708 113.2565,709.21909 95.27944,673.26497 83.294681,613.34087 71.309923,553.41678 65.317426,469.52182 62.920487,388.62439 60.523549,307.72696 61.722049,229.82451 70.605561,179.63127 79.489073,129.43803 96.478957,106.38033 117.75161,92.598319 139.02426,78.816304 164.79298,74.022124 196.85241,71.625258 Z"
     id="path817"
     inkscape:connector-curvature="0"
     inkscape:path-effect="#path-effect819"
     inkscape:original-d="m 190.55929,69.228392 c 38.35255,-0.001 76.7041,-0.001 115.05466,0 11.98555,15.578913 23.97072,31.159638 35.95458,46.740958 -2.39599,32.35842 -4.79294,64.71725 -7.19092,97.07737 -14.3813,18.57615 -28.76266,38.35055 -43.14549,57.52733 5.99378,24.5694 11.98586,49.13693 17.97729,73.7069 20.97511,5.39234 41.94801,10.78537 62.92051,16.17956 23.37071,2.99511 46.74196,5.99143 70.11144,8.98864 10.18776,19.17408 20.37526,39.54904 30.56139,59.32506 -22.17142,27.56472 -44.34298,56.32785 -66.51597,84.49327 -34.15719,2.99533 -68.31271,5.99143 -102.47056,8.98865 -6.59068,22.77023 -13.18205,45.54043 -19.77502,68.3137 11.98641,20.3742 23.97046,40.74709 35.95458,61.12279 71.91172,10.18635 143.81933,20.37327 215.72749,30.5614 44.34499,-18.57753 88.68897,-37.15407 133.03196,-55.7296 -17.37705,-19.77603 -34.75509,-39.55104 -52.13414,-59.32507 31.16164,-23.37148 62.32227,-46.74195 93.48191,-70.11143 -35.35435,-38.9518 -70.70968,-77.9026 -106.06602,-116.85239 7.79116,-25.16921 15.58132,-50.33742 23.37048,-75.50462 -10.18613,-14.98208 -20.37327,-29.96315 -30.5614,-44.94323 -32.95711,-10.78729 -68.3127,-21.57375 -102.47056,-32.35913 -4.19377,-25.16966 -8.3884,-50.33741 -12.5841,-75.50462 14.38237,-20.97383 28.76467,-41.94801 43.1455,-62.920518 53.33071,-5.993102 106.66626,-11.98586 159.99789,-17.977291 47.93945,1.197462 95.87989,2.395972 143.81833,3.595459 17.37869,23.968233 34.75709,47.93844 52.13414,71.90916 -11.3847,20.37342 -22.77023,40.74753 -34.15685,61.12279 30.56418,34.15785 61.12379,68.31271 91.68418,102.47056 -19.17481,32.95743 -38.35055,65.91574 -57.52733,98.8751 28.7657,9.58724 57.52817,19.17473 86.291,28.76367 -7.18996,34.15604 -14.38044,68.31085 -21.57275,102.47056 1.19955,23.37074 2.39797,46.73995 3.59546,70.11143 24.56998,22.171 49.13893,44.34298 73.70693,66.51598 26.3677,-3.59646 52.7343,-7.19191 79.1,-10.78637 26.3677,-17.37905 52.7344,-34.75711 79.1001,-52.13414 2.9972,-38.95177 5.9934,-77.90261 8.9886,-116.8524 -9.5868,-26.96693 -19.1747,-53.93287 -28.7636,-80.89781 -6.5906,-46.14196 -13.1823,-92.28443 -19.775,-138.42514 7.1918,-28.76414 15.5813,-57.52833 23.3705,-86.291 15.5806,-25.16817 29.9631,-49.13893 44.9432,-73.70689 29.3625,-10.18765 58.7268,-20.375265 88.0887,-30.561397 42.5455,-1.199437 85.0935,-2.397972 127.6388,-3.595458 21.5732,22.769685 44.345,45.541475 66.516,68.313705 5.9934,43.14452 11.9858,86.29 17.9772,129.4365 0.6003,233.10911 1.1995,466.21008 1.7978,699.31662 -4.1937,43.14465 -8.3884,87.48845 -12.5841,131.23425 -23.9693,12.5834 -47.9385,25.1672 -71.9092,37.7523 -52.1357,7.1903 -104.2673,14.3808 -156.4024,21.5727 -55.1306,-10.7876 -110.2597,-21.5737 -165.3911,-32.3591 -31.7593,-32.3606 -63.5188,-64.7192 -95.2796,-97.0774 9.5888,-20.9745 19.1767,-41.94797 28.7636,-62.92048 14.7579,-19.67689 28.7647,-38.35254 43.1456,-57.52733 14.3828,-19.17679 28.7646,-38.35255 43.1454,-57.52733 -28.7612,-29.36243 -57.5263,-57.52833 -86.291,-86.291 -55.72858,1.79673 -111.45818,3.59446 -167.18878,5.39319 -21.57215,41.34753 -43.1445,82.69454 -64.71825,124.04331 9.58916,30.56127 19.17678,61.12179 28.76366,91.68418 -17.3774,26.96546 -34.75509,53.93086 -52.13414,80.89776 -49.13905,16.7786 -98.27486,33.5567 -147.41379,50.3365 -57.52773,2.396 -116.25215,4.7929 -174.37972,7.1909 -43.74452,-0.6003 -88.68697,-1.1995 -133.03195,-1.7977 -53.93207,-9.5891 -107.86275,-19.1768 -161.79562,-28.7637 -22.17132,-30.5629 -44.34299,-61.1238 -66.51598,-91.6842 10.78731,-21.57362 21.57375,-43.1465 32.35912,-64.71825 19.77492,-11.38598 39.55104,-22.77223 59.32506,-34.15685 26.36612,3.59424 52.73439,7.18992 79.10009,10.78638 48.53812,14.97959 98.27685,29.96115 147.41378,44.94322 39.55053,-5.39411 79.10108,-10.78737 118.65012,-16.17956 34.15689,-16.1801 69.51319,-32.36012 104.26829,-48.53868 0.60022,-22.17223 1.19949,-44.34499 1.79773,-66.51598 -17.97546,-20.97354 -35.95358,-41.94801 -53.93187,-62.92052 -46.73978,2.9952 -93.48092,5.99143 -140.22287,8.98865 -61.12318,1.79677 -122.24458,3.59445 -183.36837,5.39318 C 221.72018,776.33391 176.17845,760.75386 131.23422,745.17454 113.2577,709.21849 95.280643,673.26437 77.302352,637.31079 71.310988,553.4167 65.318491,469.52174 59.325061,385.62871 c 1.199472,-77.90173 2.397972,-155.80418 3.595458,-233.70478 16.180351,-22.77194 33.55861,-45.54347 50.336411,-68.313705 25.76718,-4.794707 51.5359,-9.588888 77.30236,-14.381833 z"
     sodipodi:nodetypes="ccccccccccccccccccccccccccccccccccccccccccccccccccccccccccccccccccccccccccccccc" />
  <path
     style="fill:none;stroke:#aaaaaa;stroke-width:40;stroke-linecap:butt;stroke-linejoin:miter;stroke-miterlimit:4;stroke-dasharray:none;stroke-opacity:1"
     d="m 196.85241,71.625253 c 32.05943,-2.396865 70.41098,-2.396865 95.57848,5.393019 25.16749,7.789884 37.15267,23.370608 41.9467,47.340018 4.79402,23.96941 2.39707,56.32824 -5.84836,81.90422 -8.24544,25.57597 -22.91444,45.13464 -27.10947,67.00793 -4.19503,21.8733 1.79705,46.44083 4.79335,58.72567 2.9963,12.28484 2.9963,12.28484 2.39712,17.67748 -0.59919,5.39263 -1.79768,16.179 -4.79379,29.96155 -2.99611,13.78254 -7.79006,30.56135 -9.28837,51.23537 -1.49831,20.67402 0.29935,45.24202 2.39672,61.12274 2.09737,15.88073 4.49425,23.07136 2.39718,38.05214 -2.09708,14.98078 -8.68845,37.75098 -5.992,59.32516 2.69646,21.57417 14.68051,41.94706 56.62894,57.2283 41.94842,15.28124 113.85603,25.46816 171.98279,21.27314 58.12676,-4.19501 102.47075,-22.77154 115.95308,-41.9471 13.48234,-19.17557 -3.8957,-38.95058 2.99619,-60.52372 6.89188,-21.57314 38.05251,-44.94361 64.41917,-66.51642 26.36665,-21.5728 47.9394,-41.34782 61.72154,-73.70703 13.78215,-32.3592 19.77458,-77.30242 -9.88766,-106.96432 C 727.48178,288.55151 662.1643,274.16968 612.9721,261.75771 563.77989,249.34573 528.53297,238.21512 509.35678,220.2371 c -19.1762,-17.97802 -23.37082,-43.14577 -18.27703,-66.21646 5.0938,-23.07069 19.47609,-44.04487 53.33202,-57.527164 33.85594,-13.482294 87.19149,-19.475052 137.82697,-21.871962 50.63547,-2.39691 98.57591,-1.198398 131.23393,11.385358 32.65801,12.583755 50.03641,36.553968 53.03298,58.725528 2.99657,22.17157 -8.38896,42.54568 21.57553,44.94266 29.96448,2.39699 101.2701,-13.18239 137.82342,5.39382 36.5533,18.57621 38.351,71.30761 43.7443,106.06524 5.3933,34.75764 14.3815,51.53576 -5.6927,88.38907 -20.0742,36.8533 -69.20917,93.77798 -93.18068,133.9295 -23.97151,40.15152 -22.77309,63.52073 -9.8893,86.29247 12.88379,22.77174 37.45274,44.94371 62.92108,54.23188 25.4684,9.28818 51.835,5.69273 78.2017,-4.79433 26.3668,-10.48706 52.7335,-27.86511 67.4144,-56.02967 14.6809,-28.16456 17.6771,-67.1154 14.3811,-100.0735 -3.296,-32.9581 -12.8838,-59.92405 -20.9735,-96.47764 -8.0897,-36.5536 -14.6815,-82.69606 -15.2946,-113.51616 -0.6132,-30.82011 4.6543,-46.03738 9.5852,-61.75473 4.9309,-15.71736 9.0057,-30.27034 25.1857,-41.65552 16.18,-11.38519 44.3444,-19.17535 65.0178,-19.1751 20.6735,2.6e-4 33.8568,7.79039 47.0402,14.6817 13.1835,6.89131 26.3668,12.88377 62.3215,28.76372 35.9546,15.87996 94.6803,41.64737 124.3426,171.08555 29.6623,129.43818 30.2615,362.53915 28.4923,500.66743 -1.7692,138.12831 -6.0208,182.46661 -20.1027,210.63141 -14.082,28.1649 -38.0512,40.7487 -70.412,3.2939 -32.3608,-37.4547 -73.1064,-124.93799 -126.7393,-126.73609 -53.6329,-1.79809 -120.1474,82.09399 -169.286,107.86179 -49.1386,25.7678 -80.898,-6.5909 -91.9838,-33.2578 -11.0857,-26.6669 -1.4978,-47.64037 10.6747,-67.96502 12.1726,-20.32464 26.1794,-39.00031 40.5612,-58.1761 14.3818,-19.1758 28.7636,-38.35156 21.4232,-62.4698 -7.3404,-24.11823 -35.8059,-52.58373 -78.052,-66.06673 -42.24615,-13.48299 -97.97575,-11.68526 -136.62733,9.88729 -38.65157,21.57255 -60.22393,62.91955 -66.21663,98.87486 -5.9927,35.9553 3.59491,66.51583 -0.29987,95.27948 -3.89479,28.76362 -21.27249,55.72902 -54.53132,77.60212 -33.25882,21.8732 -82.39463,38.6513 -135.72854,48.227 -53.33392,9.5758 -112.05733,11.9974 -162.99346,12.9003 -50.93612,0.903 -95.87846,0.2956 -145.01708,-4.798 -49.13861,-5.0936 -103.06929,-14.6813 -141.12186,-34.7563 -38.05258,-20.0751 -60.22423,-50.636 -65.9167,-76.7035 -5.69248,-26.06752 5.09396,-47.6404 20.3744,-64.11901 15.28044,-16.47861 35.05656,-27.86486 58.12646,-31.75964 23.06991,-3.89479 49.43818,-0.29911 86.91546,8.90537 37.47729,9.20449 87.16505,24.3532 131.50902,29.147 44.34396,4.79381 83.89452,-0.59945 120.80089,-11.27116 36.90638,-10.67172 72.15595,-27.081 105.41337,-37.8671 33.25741,-10.78609 65.01839,-16.17947 92.28357,-53.33303 27.26518,-37.15357 50.03642,-106.06653 2.09737,-123.44415 -47.93905,-17.37762 -166.58919,16.77924 -297.52542,52.13501 -130.93623,35.35578 -274.15204,71.90876 -327.18523,65.01706 -53.033182,-6.89171 -15.880128,-57.22811 -6.29287,-100.37349 9.58726,-43.14537 -8.389801,-79.09949 3.5953,-129.73554 11.9851,-50.63605 53.93258,-115.95427 68.31397,-188.16289 14.3814,-72.20861 1.19805,-151.30868 -13.78306,-210.93321 -14.98111,-59.62453 -31.75992,-99.77381 -27.26556,-122.24516 4.49437,-22.471361 30.2631,-27.265541 62.32253,-29.662407 z"
     id="path817-5"
     inkscape:connector-curvature="0"
     inkscape:path-effect="#path-effect819-8"
     inkscape:original-d="m 190.55929,69.228388 c 38.35255,-10e-4 76.7041,-10e-4 115.05466,0 11.98555,15.57891 23.97072,31.159642 35.95458,46.740962 -2.39599,32.35842 -4.79294,64.71725 -7.19092,97.07737 -14.3813,18.57615 -28.76266,38.35055 -43.14549,57.52733 5.99378,24.5694 11.98586,49.13693 17.97729,73.7069 0.001,-0.001 0.001,-0.001 0,0 -1.19749,10.78537 -2.39598,21.57174 -3.59547,32.35912 -4.79295,16.7778 -9.5869,33.55661 -14.38184,50.33641 1.79873,24.56797 3.59639,49.13597 5.39319,73.7069 2.39807,7.1902 4.79495,14.38083 7.19093,21.57275 -6.59068,22.77023 -13.18205,45.54043 -19.77502,68.3137 11.98641,20.3742 23.97046,40.74709 35.95458,61.12279 71.91171,10.18635 143.81932,20.37327 215.72748,30.5614 44.345,-18.57753 88.68898,-37.15407 133.03197,-55.7296 -17.37705,-19.77603 -34.75509,-39.55104 -52.13414,-59.32507 31.16164,-23.37148 62.32227,-46.74195 93.48191,-70.11143 21.57375,-19.77602 43.14649,-39.55104 64.71825,-59.32506 5.99343,-44.94423 11.98586,-89.88745 17.97729,-134.82968 -65.3165,-14.38283 -130.63398,-28.76467 -195.95248,-43.1455 -32.95711,-10.78729 -68.31271,-21.57375 -102.47057,-32.35913 -4.19377,-25.16966 -8.3884,-50.33741 -12.5841,-75.50462 14.38237,-20.97383 28.76467,-41.94801 43.1455,-62.920522 53.33072,-5.9931 106.66627,-11.98586 159.9979,-17.97729 47.93945,1.19746 95.87989,2.39597 143.81833,3.59546 17.37869,23.96823 34.75709,47.938442 52.13414,71.909162 -11.3847,20.37342 -22.77023,40.74753 -34.15685,61.12279 71.31509,-15.58223 142.62071,-31.16161 213.92979,-46.74096 1.7987,52.73249 3.5964,105.46388 5.3932,158.20016 8.9899,16.77841 17.9782,33.55652 26.9659,50.33642 -49.1372,56.92741 -98.27219,113.85209 -147.41379,170.78427 1.19955,23.37074 2.39797,46.73995 3.59546,70.11143 24.56998,22.171 49.13893,44.34298 73.70693,66.51598 26.3677,-3.59646 52.7343,-7.19191 79.1,-10.78637 26.3677,-17.37905 52.7344,-34.75711 79.1001,-52.13414 2.9972,-38.95177 5.9934,-77.90261 8.9886,-116.8524 -9.5868,-26.96693 -19.1747,-53.93287 -28.7636,-80.89781 -6.5906,-46.14196 -13.1823,-92.28443 -19.775,-138.42514 5.3657,-15.49916 10.6333,-30.7164 16.1796,-46.74096 4.3155,-15.41019 8.3904,-29.96315 12.5841,-44.94322 28.1654,-7.79117 56.3298,-15.58133 84.4932,-23.37049 13.1844,7.78916 26.3677,15.57931 39.5501,23.37048 13.1843,5.99143 26.3677,11.98386 39.55,17.97729 58.7269,25.76647 117.4526,51.53391 176.1774,77.30236 0.6003,233.10911 1.1995,466.21008 1.7978,699.31662 -4.1937,43.14465 -8.3884,87.48845 -12.5841,131.23425 -23.9693,12.5834 -47.9385,25.1672 -71.9092,37.7523 -40.7495,-87.4948 -81.4951,-174.97805 -122.2455,-262.4685 -66.5165,83.89491 -133.031,167.787 -199.548,251.6821 -31.7593,-32.3606 -63.5188,-64.7192 -95.2796,-97.0774 9.5888,-20.9745 19.1767,-41.94797 28.7636,-62.92048 14.7579,-19.67689 28.7647,-38.35254 43.1456,-57.52733 14.3828,-19.17679 28.7646,-38.35255 43.1454,-57.52733 -28.7612,-29.36243 -57.5263,-57.52833 -86.291,-86.291 -55.72858,1.79673 -111.45818,3.59446 -167.18878,5.39319 -21.57215,41.34753 -43.1445,82.69454 -64.71825,124.04331 9.58916,30.56127 19.17678,61.12179 28.76366,91.68418 -17.3774,26.96546 -34.75509,53.93086 -52.13414,80.89776 -49.13905,16.7786 -98.27486,33.5567 -147.41379,50.3365 -57.52773,2.396 -116.25216,4.7929 -174.37973,7.1909 -43.74452,-0.6003 -88.68697,-1.1995 -133.03194,-1.7977 -53.93207,-9.5891 -107.86275,-19.1768 -161.79562,-28.7637 -22.17132,-30.5629 -44.343,-61.1238 -66.51599,-91.6842 10.78731,-21.57362 21.57375,-43.1465 32.35912,-64.71825 19.77493,-11.38598 39.55105,-22.77223 59.32507,-34.15685 26.36612,3.59424 52.73439,7.18992 79.10009,10.78638 48.53812,14.97959 98.27684,29.96115 147.41377,44.94322 39.55053,-5.39411 79.10108,-10.78737 118.65012,-16.17956 34.1569,-16.1801 69.5132,-32.36012 104.2683,-48.53868 31.75979,-5.394 63.52077,-10.78738 95.27964,-16.17956 22.77224,-68.91394 45.54348,-137.8269 68.31371,-206.73885 C 686.73351,718.2076 568.08337,752.36446 449.43227,786.52231 306.21092,823.07597 162.99511,859.62895 19.775021,896.18378 56.929086,845.84636 94.082141,795.50996 131.23421,745.17454 113.25769,709.21849 95.280638,673.26437 77.302338,637.31079 119.24988,571.99303 161.19736,506.67481 203.14338,441.35831 189.96103,362.25723 176.77769,283.15716 163.59334,204.05807 146.81553,163.90779 130.03673,123.75851 113.25692,83.610218 c 25.76718,-4.7947 51.53591,-9.58888 77.30237,-14.38183 z"
     sodipodi:nodetypes="ccccccccccccccccccccccccccccccccccccccccccccccccccccccccccccccccccccccccccccccc" />
</svg>
