<?xml version="1.0" encoding="UTF-8" standalone="no"?>
<svg
   xmlns:dc="http://purl.org/dc/elements/1.1/"
   xmlns:cc="http://creativecommons.org/ns#"
   xmlns:rdf="http://www.w3.org/1999/02/22-rdf-syntax-ns#"
   xmlns:svg="http://www.w3.org/2000/svg"
   xmlns="http://www.w3.org/2000/svg"
   xmlns:sodipodi="http://sodipodi.sourceforge.net/DTD/sodipodi-0.dtd"
   xmlns:inkscape="http://www.inkscape.org/namespaces/inkscape"
   id="svg4"
   height="600"
   width="800"
   version="1.1"
   sodipodi:docname="circuit2.svg"
   inkscape:version="0.92.3 (2405546, 2018-03-11)">
  <sodipodi:namedview
     pagecolor="#ffffff"
     bordercolor="#666666"
     borderopacity="1"
     objecttolerance="10"
     gridtolerance="10"
     guidetolerance="10"
     inkscape:pageopacity="0"
     inkscape:pageshadow="2"
     inkscape:window-width="2004"
     inkscape:window-height="1047"
     id="namedview8"
     showgrid="false"
     inkscape:zoom="1.1125147"
     inkscape:cx="328.40743"
     inkscape:cy="314.46874"
     inkscape:window-x="0"
     inkscape:window-y="0"
     inkscape:window-maximized="0"
     inkscape:current-layer="svg4" />
  <metadata
     id="metadata10">
    <rdf:RDF>
      <cc:Work
         rdf:about="">
        <dc:format>image/svg+xml</dc:format>
        <dc:type
           rdf:resource="http://purl.org/dc/dcmitype/StillImage" />
        <dc:title />
      </cc:Work>
    </rdf:RDF>
  </metadata>
  <defs
     id="defs8">
    <inkscape:path-effect
       effect="bspline"
       id="path-effect817"
       is_visible="true"
       weight="33.333333"
       steps="2"
       helper_size="0"
       apply_no_weight="true"
       apply_with_weight="true"
       only_selected="false" />
    <inkscape:path-effect
       effect="bspline"
       id="path-effect817-1"
       is_visible="true"
       weight="33.333333"
       steps="2"
       helper_size="0"
       apply_no_weight="true"
       apply_with_weight="true"
       only_selected="false" />
  </defs>
  <rect
     id="rect2"
     style="fill:black;stroke:black"
     height="600"
     width="800" />
  <path
     style="fill:none;stroke:#aaaaaa;stroke-width:40;stroke-linecap:butt;stroke-linejoin:miter;stroke-miterlimit:4;stroke-dasharray:none;stroke-opacity:1"
     d="m 527.63449,34.314577 c -75.205,-0.29962 -211.53279,-0.898863 -287.12725,2.516546 -75.59446,3.41541 -90.69528,10.965819 -108.97311,23.400668 -18.27783,12.434849 -39.848853,29.811502 -56.178753,49.586929 -16.329901,19.77542 -27.415335,41.94629 -33.857525,75.05574 -6.442189,33.10945 -8.239821,77.15143 -8.689275,119.54839 -0.449454,42.39695 0.44939,83.14451 5.992418,117.30191 5.543029,34.1574 15.729916,61.72192 29.871227,82.77256 14.141311,21.05064 32.599968,35.87809 119.789758,44.11764 87.18978,8.23954 243.29362,10.03728 336.02648,7.19075 92.73286,-2.84654 122.09596,-10.33713 146.51471,-20.37442 24.41875,-10.03729 43.89493,-22.6219 57.22753,-38.0521 13.3326,-15.43019 20.52395,-33.70819 24.26898,-52.1342 3.74503,-18.42602 4.04467,-37.00378 -0.82872,-53.53085 -4.8734,-16.52707 -15.20141,-31.41156 -31.97968,-42.64711 -16.77827,-11.23555 -40.14908,-19.02582 -71.01042,-23.96968 -30.86134,-4.94385 -69.2119,-7.04115 -105.46651,-8.53928 -36.25462,-1.49813 -70.41063,-2.39697 -101.2719,-8.98855 -30.86127,-6.59159 -58.42645,-18.87607 -72.5089,-35.95509 -14.08246,-17.07901 -14.6817,-38.95138 -12.28456,-59.77518 2.39715,-20.82381 7.79034,-40.59882 23.82053,-55.57954 16.03019,-14.98071 42.69652,-25.16785 64.41892,-29.51209 21.72241,-4.34424 38.50122,-2.84613 56.62735,0.59934 18.12613,3.44546 37.60323,8.83912 54.53124,19.47529 16.92801,10.63617 31.31034,26.51666 45.24294,38.35184 13.93261,11.83518 27.41554,19.62531 44.64388,23.22067 17.22835,3.59536 38.20235,2.9961 53.78234,-3.7456 15.57999,-6.74171 25.76762,-19.62606 33.55726,-36.70362 7.78964,-17.07756 13.18329,-38.3525 12.43417,-57.52747 C 745.45851,91.243098 738.56683,74.163725 728.52979,62.029405 718.49275,49.895086 705.30986,42.704417 688.53079,38.95893 671.75172,35.213443 651.37915,34.913847 634.15009,34.764022 616.92103,34.614197 602.8395,34.614196 527.63449,34.314577 Z"
     id="path815"
     inkscape:connector-curvature="0"
     inkscape:path-effect="#path-effect817"
     inkscape:original-d="M 588.75628,34.614196 C 452.42949,34.013953 316.1017,33.41471 179.77291,32.816467 164.79273,40.006436 149.81176,47.796543 134.82968,55.288081 113.2562,72.666522 91.685184,90.043177 70.111435,107.42222 59.025877,129.59434 47.940443,151.76521 36.853447,173.9382 c -1.796827,44.04575 -3.594459,88.08773 -5.393188,132.13309 0.899886,40.74849 1.798729,81.49605 2.696594,122.24558 10.188376,27.56484 20.375263,55.12936 30.561395,82.69554 17.978653,14.68075 36.554822,29.36191 54.830742,44.04436 156.10278,1.79672 312.20662,3.59446 468.30843,5.39319 29.36372,-7.49149 58.72682,-14.98208 88.08872,-22.47161 19.47562,-12.5846 38.9518,-25.16921 58.4262,-37.75232 7.19149,-18.27682 14.38283,-36.55482 21.57275,-54.83073 0.3006,-18.57631 0.60024,-37.15407 0.89886,-55.72961 -10.18557,-14.38204 -20.37326,-29.3639 -30.56139,-44.04436 -23.36915,-7.79105 -46.73996,-15.58132 -70.11144,-23.37048 -38.35154,-2.0984 -76.7021,-4.1957 -115.05466,-6.29205 -34.1567,-0.89989 -68.31271,-1.79873 -102.47056,-2.69659 -27.56418,-12.28548 -55.12936,-24.56997 -82.69554,-36.85345 -0.59824,-21.87337 -1.19749,-43.74574 -1.79773,-65.61711 5.39419,-19.77602 10.78737,-39.55104 16.17956,-59.32506 26.66732,-10.18813 53.33364,-20.37527 79.99895,-30.5614 16.77981,1.49711 33.55862,2.99522 50.33642,4.49433 19.47469,5.39171 38.95179,10.78537 58.42619,16.17956 14.38234,15.87839 28.76467,31.75888 43.1455,47.63982 13.48401,7.78918 26.96694,15.57932 40.44891,23.37048 20.97401,-0.60023 41.94801,-1.19949 62.92051,-1.79773 10.18764,-12.8841 20.37527,-25.76845 30.5614,-38.65118 5.39372,-21.27231 10.78737,-42.54725 16.17956,-63.81938 C 745.45972,91.242609 738.56804,74.163237 731.67574,57.08581 718.4934,49.893893 705.31051,42.703228 692.12571,35.51306 c -20.37398,-0.300631 -40.74655,-0.600228 -61.12279,-0.898863 -14.08189,-0.001 -28.16342,-0.001 -42.24664,-10e-7 z"
     sodipodi:nodetypes="ccccccccccccccccccccccccccccccccc" />
  <path
     style="fill:none;stroke:#ffffff;stroke-width:2;stroke-linecap:butt;stroke-linejoin:miter;stroke-miterlimit:4;stroke-dasharray:none;stroke-opacity:1"
     d="m 527.63449,34.314578 c -75.205,-0.29962 -211.53279,-0.898863 -287.12725,2.516547 -75.59446,3.415409 -90.69528,10.965821 -108.97311,23.40067 -18.27784,12.434849 -39.848853,29.811499 -56.178755,49.586925 -16.329902,19.77542 -27.415336,41.94629 -33.857526,75.05574 -6.442191,33.10945 -8.239824,77.15143 -8.689277,119.54839 -0.449453,42.39695 0.449393,83.14451 5.992421,117.30191 5.543028,34.15739 15.729915,61.72192 29.871228,82.77256 14.141312,21.05065 32.599969,35.87809 119.789759,44.11764 87.18978,8.23954 243.29362,10.03728 336.02648,7.19075 92.73286,-2.84654 122.09596,-10.33713 146.51471,-20.37442 24.41875,-10.03729 43.89493,-22.6219 57.22753,-38.0521 13.3326,-15.43019 20.52395,-33.70819 24.26898,-52.1342 3.74503,-18.42602 4.04467,-37.00378 -0.82872,-53.53085 -4.8734,-16.52707 -15.20141,-31.41156 -31.97968,-42.64711 -16.77827,-11.23555 -40.14908,-19.02582 -71.01042,-23.96968 -30.86134,-4.94385 -69.2119,-7.04115 -105.46651,-8.53928 -36.25462,-1.49813 -70.41063,-2.39697 -101.2719,-8.98855 -30.86127,-6.59159 -58.42645,-18.87607 -72.5089,-35.95509 -14.08246,-17.07901 -14.6817,-38.95138 -12.28456,-59.77518 2.39715,-20.82381 7.79034,-40.59882 23.82053,-55.57954 16.03019,-14.98071 42.69652,-25.16785 64.41892,-29.51209 21.72241,-4.34424 38.50122,-2.84613 56.62735,0.59934 18.12613,3.44546 37.60323,8.83912 54.53124,19.47529 16.92801,10.63617 31.31034,26.51666 45.24294,38.35184 13.93261,11.83518 27.41554,19.62531 44.64388,23.22067 17.22835,3.59536 38.20235,2.9961 53.78234,-3.7456 15.57999,-6.74171 25.76762,-19.62606 33.55726,-36.70362 7.78964,-17.07756 13.18329,-38.3525 12.43417,-57.52747 -0.74911,-19.174974 -7.64079,-36.254345 -17.67783,-48.388665 -10.03704,-12.134321 -23.21993,-19.32499 -39.999,-23.070477 -16.77907,-3.745487 -37.15164,-4.045082 -54.3807,-4.194907 -17.22906,-0.149824 -31.31059,-0.149824 -106.5156,-0.449443 z"
     id="path815-8"
     inkscape:connector-curvature="0"
     inkscape:path-effect="#path-effect817-1"
     inkscape:original-d="m 588.75628,34.614197 c -136.32679,-0.60024 -272.65458,-1.19949 -408.98337,-1.79773 -14.98018,7.18997 -29.96115,14.98008 -44.94323,22.47162 -21.57348,17.37844 -43.144497,34.75509 -64.718247,52.134133 -11.08556,22.17212 -22.17099,44.34299 -33.25799,66.51598 -1.79682,44.04575 -3.59446,88.08773 -5.39319,132.13309 0.89989,40.74849 1.79873,81.49605 2.6966,122.24558 10.18837,27.56484 20.37526,55.12936 30.56139,82.69554 17.97866,14.68075 36.554827,29.36191 54.830747,44.04436 156.10278,1.79672 312.20662,3.59446 468.30843,5.39319 29.36372,-7.49149 58.72682,-14.98208 88.08872,-22.47161 19.47562,-12.5846 38.9518,-25.16921 58.4262,-37.75232 7.19149,-18.27682 14.38283,-36.55482 21.57275,-54.83073 0.3006,-18.57631 0.60024,-37.15407 0.89886,-55.72961 -10.18557,-14.38204 -20.37326,-29.3639 -30.56139,-44.04436 -23.36915,-7.79105 -46.73996,-15.58132 -70.11144,-23.37048 -38.35154,-2.0984 -76.7021,-4.1957 -115.05466,-6.29205 -34.1567,-0.89989 -68.31271,-1.79873 -102.47056,-2.69659 -27.56418,-12.28548 -55.12936,-24.56997 -82.69554,-36.85345 -0.59824,-21.87337 -1.19749,-43.74574 -1.79773,-65.61711 5.39419,-19.77602 10.78737,-39.55104 16.17956,-59.32506 26.66732,-10.18813 53.33364,-20.37527 79.99895,-30.5614 16.77981,1.49711 33.55862,2.99522 50.33642,4.49433 19.47469,5.39171 38.95179,10.78537 58.42619,16.17956 14.38234,15.87839 28.76467,31.75888 43.1455,47.63982 13.48401,7.78918 26.96694,15.57932 40.44891,23.37048 20.97401,-0.60023 41.94801,-1.19949 62.92051,-1.79773 10.18764,-12.8841 20.37527,-25.76845 30.5614,-38.65118 5.39372,-21.27231 10.78737,-42.54725 16.17956,-63.81938 -6.88991,-17.078483 -13.78159,-34.157853 -20.67389,-51.235283 -13.18234,-7.19191 -26.36523,-14.38258 -39.55003,-21.57275 -20.37398,-0.30063 -40.74655,-0.60022 -61.12279,-0.89886 -14.08189,-10e-4 -28.16342,-10e-4 -42.24664,0 z"
     sodipodi:nodetypes="ccccccccccccccccccccccccccccccccc" />
</svg>
